<svg width="439" height="493" viewBox="0 0 439 493" fill="none" xmlns="http://www.w3.org/2000/svg">
<path d="M92.721 0.651001C176.004 0.651001 259.287 0.651001 345.094 0.651001C345.094 16.981 345.094 33.3111 345.094 50.1359C375.958 50.1359 406.822 50.1359 438.621 50.1359C438.681 101.117 438.681 101.117 438.693 122.49C438.696 127.381 438.699 132.272 438.702 137.163C438.703 138.083 438.703 138.083 438.703 139.021C438.71 148.883 438.722 158.745 438.735 168.607C438.749 178.747 438.757 188.887 438.76 199.028C438.762 205.272 438.769 211.516 438.781 217.76C438.789 222.057 438.791 226.354 438.789 230.651C438.788 233.12 438.79 235.59 438.798 238.059C438.876 263.183 436.643 288.743 429.057 312.829C428.743 313.83 428.442 314.834 428.146 315.841C424.98 326.377 420.996 336.582 416.352 346.551C416.033 347.236 416.033 347.236 415.708 347.935C406.859 366.71 394.895 384.522 380.82 399.793C379.913 400.787 379.032 401.795 378.153 402.814C376.425 404.79 374.621 406.671 372.767 408.529C372.444 408.853 372.122 409.177 371.789 409.511C371.111 410.192 370.433 410.872 369.753 411.551C368.73 412.575 367.711 413.604 366.692 414.632C363.465 417.872 360.243 420.998 356.638 423.819C355.398 424.807 354.237 425.856 353.074 426.933C350.511 429.259 347.805 431.369 345.036 433.44C344.402 433.916 343.769 434.394 343.138 434.874C326.973 447.171 309.55 457.881 291.28 466.75C290.023 467.364 288.771 467.988 287.52 468.612C270.697 476.922 253.099 483.539 235.114 488.851C234.769 488.953 234.425 489.055 234.07 489.16C219.743 493.382 219.743 493.382 213.969 491.874C213.402 491.726 212.834 491.578 212.25 491.426C211.64 491.26 211.031 491.094 210.402 490.923C209.926 490.795 209.926 490.795 209.44 490.664C197.388 487.406 185.44 483.379 173.876 478.675C173.412 478.488 172.949 478.301 172.471 478.107C143.189 466.198 115.094 450.903 90.5642 430.844C89.8202 430.236 89.0729 429.632 88.3253 429.028C78.5589 421.113 78.5589 421.113 74.6822 417.092C73.8641 416.272 73.0058 415.528 72.1229 414.778C68.1184 411.32 64.3411 407.497 60.9172 403.464C59.8554 402.23 58.7516 401.037 57.6485 399.84C55.4482 397.421 53.3401 394.951 51.3051 392.392C50.8504 391.822 50.3929 391.255 49.9332 390.689C42.6485 381.717 36.0278 371.974 30.37 361.891C30.0158 361.264 30.0158 361.264 29.6545 360.624C23.2621 349.241 18.0067 337.537 13.5451 325.272C13.3711 324.798 13.1971 324.325 13.0179 323.836C10.6856 317.415 8.86875 310.892 7.20483 304.272C7.0644 303.717 7.0644 303.717 6.92114 303.15C5.75156 298.495 4.76509 293.836 3.97248 289.102C3.74382 287.739 3.50735 286.38 3.25872 285.021C1.02087 272.752 0.10097 260.221 0.124642 247.762C0.124426 246.904 0.123989 246.046 0.123359 245.189C0.122261 242.853 0.124225 240.517 0.126719 238.181C0.128868 235.654 0.128128 233.127 0.127753 230.601C0.127494 226.23 0.12904 221.859 0.131831 217.488C0.135862 211.168 0.137145 204.849 0.137765 198.529C0.138847 188.274 0.142132 178.02 0.146819 167.765C0.151365 157.807 0.15486 147.849 0.156967 137.891C0.1571 137.271 0.157231 136.65 0.157367 136.011C0.158396 131.156 0.159363 126.301 0.160312 121.447C0.164975 97.6765 0.174936 73.9062 0.18415 50.1359C30.7213 50.1359 61.2585 50.1359 92.721 50.1359C92.721 33.8059 92.721 17.4759 92.721 0.651001Z" fill="url(#paint0_linear_43_326)"/>
<path d="M114.99 24.4037C144.71 24.4037 174.431 24.4037 205.052 24.4037C205.052 56.4106 205.052 88.4175 205.052 121.394C198.439 122.619 198.439 122.619 191.691 123.868C163.751 130.777 137.495 146.275 120.433 169.889C120.011 170.457 119.588 171.025 119.165 171.592C106 189.433 98.2698 210.281 95.6905 232.24C95.6248 232.778 95.5591 233.316 95.4914 233.87C94.2635 246.334 95.0858 259.196 98.1648 271.334C98.3 271.887 98.4352 272.44 98.5746 273.009C99.0471 274.355 99.0471 274.355 100.167 275.026C108.884 277.973 117.899 276.6 126.062 272.849C137.023 267.815 150.731 266.069 162.325 270.333C165.397 271.555 168.401 272.918 171.402 274.303C177.621 277.152 186.099 277.617 192.602 275.344C194.147 274.724 195.638 274.043 197.135 273.313C208.072 268.125 221.389 266.125 233.133 269.943C237.055 271.352 240.844 273.085 244.64 274.798C248.159 276.356 251.613 276.385 255.403 276.406C255.868 276.416 256.332 276.426 256.81 276.437C261.545 276.463 265.352 275.126 269.62 273.183C282.567 267.292 295.71 266.45 309.172 271.467C310.607 272.049 312.015 272.67 313.424 273.313C314.463 273.772 315.504 274.225 316.548 274.674C317.005 274.875 317.463 275.077 317.934 275.285C321.038 276.377 324.214 276.372 327.466 276.375C327.861 276.381 328.257 276.387 328.664 276.393C332.68 276.403 336.321 275.442 340.146 274.303C340.2 273.936 340.255 273.569 340.31 273.191C340.848 269.62 341.441 266.065 342.099 262.514C342.824 258.519 343.194 254.569 343.233 250.509C343.24 249.883 343.24 249.883 343.248 249.244C343.572 214.223 331.517 183.114 307.003 157.909C304.036 154.914 300.921 152.188 297.589 149.601C297.092 149.205 296.594 148.81 296.081 148.402C289.416 143.139 282.351 138.687 274.826 134.755C274.467 134.567 274.107 134.379 273.737 134.185C260.764 127.496 247.088 123.782 232.764 121.394C232.764 89.3874 232.764 57.3805 232.764 24.4037C262.484 24.4037 292.205 24.4037 322.826 24.4037C322.826 31.9156 322.826 39.4274 322.826 47.1668C300.618 47.1668 278.409 47.1668 255.527 47.1668C255.527 65.2932 255.527 83.4195 255.527 102.095C256.507 102.258 257.486 102.422 258.496 102.59C264.097 103.945 269.585 105.631 274.826 108.033C275.568 108.358 276.31 108.681 277.053 109.004C288.824 114.153 299.865 120.327 309.96 128.322C310.403 128.67 310.846 129.017 311.302 129.376C319.628 136.044 327.704 143.608 334.208 152.075C334.59 152.553 334.972 153.032 335.366 153.525C340.76 160.359 345.478 167.639 349.548 175.333C349.714 175.645 349.879 175.957 350.05 176.278C364.828 204.387 370.526 236.921 365.383 268.364C365.22 268.691 365.057 269.018 364.889 269.354C364.827 269.977 364.766 270.599 364.703 271.241C362.576 291.308 352.473 313.917 340.146 329.726C339.414 330.715 338.682 331.705 337.95 332.695C330.348 342.779 321.558 352.766 311.445 360.406C310.847 360.87 310.249 361.334 309.651 361.798C296.735 371.742 282.37 379.694 266.878 384.825C265.985 385.127 265.1 385.45 264.216 385.775C230.499 397.896 189.943 394.428 157.796 379.286C156.389 378.609 154.988 377.922 153.588 377.231C153.172 377.029 152.757 376.827 152.329 376.619C143.372 372.235 135.119 366.654 127.361 360.406C126.699 359.887 126.699 359.887 126.023 359.357C121.977 356.133 118.234 352.594 114.495 349.025C113.903 348.464 113.903 348.464 113.298 347.892C111.096 345.755 109.158 343.451 107.24 341.057C106.086 339.627 104.896 338.235 103.701 336.839C98.5658 330.663 94.2663 324.016 90.3779 316.997C89.7977 315.952 89.2066 314.913 88.6138 313.875C83.2723 304.348 79.522 294.023 76.7287 283.489C76.4339 282.38 76.1259 281.277 75.8115 280.173C72.7608 268.944 71.8247 257.403 71.814 245.818C71.8132 245.346 71.8124 244.874 71.8115 244.388C71.8108 237.188 72.1454 230.181 73.2406 223.053C73.3999 221.997 73.5351 220.944 73.6543 219.883C75.1649 207.231 79.6193 193.652 85.2987 182.261C85.477 181.901 85.6553 181.542 85.839 181.172C90.0856 172.698 94.9324 164.596 100.639 157.023C100.856 156.735 101.073 156.447 101.296 156.15C104.102 152.446 107.053 148.931 110.233 145.543C111.423 144.268 112.574 142.966 113.722 141.652C120.797 133.803 129.409 127.134 138.248 121.394C138.768 121.056 139.289 120.718 139.825 120.37C141.426 119.361 143.045 118.387 144.681 117.435C145.03 117.231 145.379 117.027 145.738 116.817C170.296 102.59 170.296 102.59 181.794 102.59C181.794 84.4636 181.794 66.3373 181.794 47.6617C159.749 47.6617 137.703 47.6617 114.99 47.6617C114.99 39.9866 114.99 32.3114 114.99 24.4037Z" fill="#FDFEFE"/>
<path d="M21.9577 71.4144C63.2726 71.4144 104.588 71.4144 147.155 71.4144C137.786 83.9054 124.596 91.5666 109.233 94.214C103.268 95.0378 97.2166 94.7934 91.2095 94.769C89.8659 94.7666 88.5222 94.7657 87.1786 94.7648C84.0207 94.7617 80.8628 94.7536 77.7049 94.7436C74.1051 94.7325 70.5052 94.7271 66.9053 94.7222C59.5105 94.7119 52.1156 94.6945 44.7207 94.6723C44.7613 114.252 44.807 133.832 44.8593 153.412C44.8655 155.733 44.8717 158.053 44.8778 160.373C44.879 160.835 44.8802 161.297 44.8815 161.773C44.9011 169.216 44.9173 176.66 44.9323 184.103C44.9478 191.761 44.9669 199.419 44.9893 207.077C45.003 211.789 45.014 216.501 45.0212 221.212C45.0265 224.459 45.0354 227.706 45.0469 230.953C45.0534 232.816 45.0585 234.679 45.0593 236.542C45.0635 244.18 45.2167 251.788 45.6859 259.413C45.7069 259.755 45.7279 260.097 45.7496 260.45C46.0746 265.628 46.5505 270.754 47.3496 275.88C47.4586 276.608 47.5676 277.336 47.6765 278.064C48.553 283.81 49.6768 289.464 51.1538 295.086C51.2747 295.558 51.3957 296.03 51.5203 296.517C61.1206 333.69 82.4837 368.458 112.703 392.525C114.096 393.639 115.454 394.789 116.814 395.943C129.43 406.448 143.528 415.143 158.041 422.757C158.749 423.132 158.749 423.132 159.471 423.514C174.694 431.526 190.665 437.805 207.031 443.046C207.585 443.226 208.139 443.407 208.709 443.592C210.136 444.052 211.566 444.497 213 444.933C213.388 445.056 213.776 445.179 214.176 445.306C218.542 446.564 222.625 445.61 226.887 444.345C227.322 444.218 227.758 444.09 228.206 443.959C256.024 435.634 283.125 423.55 306.991 406.922C307.266 406.732 307.541 406.542 307.824 406.347C315.475 401.047 322.787 395.277 329.754 389.108C330.216 388.701 330.678 388.295 331.153 387.876C337.503 382.175 343.924 376.204 349.161 369.449C350.025 368.347 350.942 367.336 351.898 366.314C355.064 362.789 357.721 358.839 360.435 354.963C360.77 354.486 360.77 354.486 361.112 354C366.565 346.194 371.2 337.827 375.28 329.231C375.449 328.883 375.617 328.536 375.791 328.177C384.638 309.852 389.539 290.241 391.841 270.091C391.996 268.751 392.17 267.42 392.363 266.084C393.343 258.762 393.249 251.412 393.251 244.039C393.253 242.029 393.261 240.02 393.267 238.01C393.278 234.538 393.286 231.067 393.291 227.595C393.298 222.575 393.311 217.556 393.325 212.536C393.347 204.39 393.365 196.244 393.381 188.098C393.396 180.191 393.413 172.283 393.432 164.375C393.434 163.887 393.435 163.399 393.436 162.895C393.442 160.445 393.448 157.995 393.455 155.544C393.506 135.254 393.55 114.963 393.589 94.6723C393.114 94.6751 393.114 94.6751 392.629 94.6779C384.87 94.7219 377.111 94.7545 369.352 94.7749C365.6 94.7851 361.847 94.7989 358.095 94.8217C354.819 94.8416 351.543 94.8542 348.267 94.8586C346.537 94.8611 344.808 94.867 343.078 94.8816C332.078 94.9709 322.091 94.1491 311.939 89.7239C311.423 89.5006 310.907 89.2773 310.376 89.0473C302.219 85.2431 294.743 78.95 289.176 71.9093C289.176 71.746 289.176 71.5827 289.176 71.4144C331.308 71.4144 373.439 71.4144 416.847 71.4144C416.907 117.364 416.907 117.364 416.92 136.629C416.923 141.038 416.926 145.447 416.929 149.855C416.93 150.684 416.93 150.684 416.93 151.529C416.937 160.418 416.948 169.307 416.962 178.196C416.976 187.336 416.984 196.476 416.987 205.616C416.989 211.244 416.995 216.872 417.008 222.5C417.016 226.373 417.018 230.246 417.016 234.118C417.015 236.344 417.016 238.57 417.024 240.796C417.061 251.406 416.634 261.782 415.363 272.323C415.301 272.841 415.239 273.359 415.176 273.893C413.806 285.266 411.723 296.478 408.435 307.458C408.266 308.021 408.266 308.021 408.094 308.596C407.409 310.864 406.698 313.123 405.961 315.375C405.745 316.042 405.745 316.042 405.524 316.722C397.415 341.458 384.146 364.682 366.868 384.159C366.259 384.86 365.651 385.561 365.043 386.262C364.497 386.881 363.951 387.5 363.404 388.118C363.093 388.471 362.782 388.824 362.462 389.187C359.793 392.187 357.026 395.068 354.18 397.901C353.473 398.606 352.768 399.313 352.064 400.021C349.491 402.59 346.878 405.067 344.105 407.417C343.582 407.869 343.059 408.32 342.537 408.772C339.152 411.658 335.713 414.449 332.155 417.12C331.517 417.599 330.881 418.081 330.247 418.564C319.733 426.557 308.614 433.631 297.094 440.077C296.565 440.374 296.036 440.671 295.491 440.977C276.338 451.666 256.125 459.696 235.238 466.304C234.616 466.501 233.993 466.698 233.352 466.902C208.969 474.504 179.55 459.088 157.546 448.49C156.747 448.106 156.747 448.106 155.931 447.715C145.196 442.538 134.896 436.646 124.886 430.18C124.437 429.89 124.437 429.89 123.979 429.594C116.341 424.638 108.995 419.289 101.948 413.524C101.199 412.914 100.445 412.311 99.6896 411.708C96.6038 409.233 93.6918 406.607 90.8036 403.907C89.4722 402.663 88.1168 401.449 86.752 400.242C82.8658 396.754 79.1276 393.072 75.7435 389.092C74.7884 387.981 73.796 386.908 72.8034 385.829C70.0391 382.761 67.5194 379.518 65.0096 376.242C64.7649 375.924 64.5203 375.606 64.2682 375.278C40.4279 344.204 25.7359 306.338 22.6235 267.264C22.5921 266.876 22.5607 266.488 22.5284 266.089C21.8293 257.266 21.753 248.468 21.7854 239.622C21.7919 237.352 21.7896 235.082 21.7885 232.812C21.7877 228.902 21.7923 224.993 21.8007 221.084C21.8129 215.432 21.8166 209.78 21.8185 204.128C21.8217 194.953 21.8315 185.777 21.8457 176.602C21.8593 167.702 21.8698 158.803 21.8761 149.904C21.8765 149.347 21.8769 148.79 21.8773 148.217C21.8804 143.863 21.8833 139.509 21.8862 135.154C21.9001 113.908 21.93 92.6611 21.9577 71.4144Z" fill="#FDFEFE"/>
<path d="M208.516 148.116C215.701 148.116 222.886 148.116 230.289 148.116C230.452 169.019 230.616 189.921 230.784 211.457C245.318 196.923 259.851 182.389 274.826 167.415C276.408 168.206 277.134 168.611 278.302 169.789C278.579 170.067 278.856 170.344 279.142 170.63C279.435 170.928 279.727 171.226 280.029 171.533C280.334 171.839 280.639 172.145 280.953 172.46C281.923 173.436 282.89 174.415 283.857 175.395C284.515 176.058 285.173 176.721 285.832 177.384C287.444 179.007 289.053 180.633 290.661 182.261C288.412 184.957 286.027 187.458 283.539 189.934C283.126 190.346 282.714 190.759 282.289 191.183C280.964 192.509 279.636 193.832 278.309 195.156C277.486 195.978 276.664 196.799 275.842 197.621C272.803 200.657 269.763 203.691 266.722 206.725C256.526 216.906 256.526 216.906 246.124 227.292C267.027 227.455 287.929 227.619 309.465 227.787C309.465 234.972 309.465 242.157 309.465 249.56C301.348 249.594 293.231 249.621 285.114 249.637C281.344 249.645 277.575 249.655 273.806 249.672C270.519 249.687 267.232 249.697 263.946 249.7C262.207 249.702 260.468 249.706 258.729 249.717C256.784 249.729 254.839 249.729 252.894 249.729C252.322 249.734 251.751 249.739 251.162 249.745C246.814 249.728 243.018 249.256 239.784 246.127C239.163 245.541 239.163 245.541 238.53 244.942C237.61 244.017 236.713 243.087 235.827 242.132C231.565 237.577 227.237 234.183 220.79 233.888C214.061 233.845 209.789 235.488 204.978 240.214C204.093 241.104 203.217 242.002 202.342 242.901C196.472 248.922 196.472 248.922 192.483 249.126C192.01 249.126 191.537 249.125 191.05 249.125C190.506 249.126 189.963 249.126 189.403 249.127C188.807 249.125 188.211 249.123 187.596 249.122C186.969 249.122 186.341 249.122 185.694 249.122C183.973 249.122 182.251 249.119 180.53 249.116C178.731 249.112 176.931 249.112 175.132 249.112C171.726 249.11 168.319 249.106 164.912 249.101C161.033 249.095 157.155 249.093 153.276 249.09C145.297 249.085 137.319 249.076 129.34 249.065C129.34 242.043 129.34 235.022 129.34 227.787C150.242 227.624 171.145 227.46 192.681 227.292C177.984 212.595 163.287 197.898 148.144 182.756C148.935 181.173 149.34 180.447 150.518 179.28C150.795 179.002 151.073 178.725 151.358 178.439C151.656 178.146 151.954 177.854 152.261 177.552C152.568 177.247 152.874 176.942 153.189 176.628C154.165 175.658 155.144 174.691 156.124 173.725C156.787 173.066 157.45 172.408 158.113 171.749C159.736 170.137 161.362 168.528 162.99 166.92C165.686 169.169 168.186 171.554 170.663 174.042C171.075 174.455 171.487 174.867 171.912 175.292C173.238 176.618 174.561 177.945 175.885 179.272C176.706 180.095 177.528 180.917 178.35 181.739C181.386 184.778 184.42 187.818 187.454 190.859C194.241 197.656 201.028 204.453 208.021 211.457C208.266 180.103 208.266 180.103 208.516 148.116Z" fill="#FDFEFE"/>
<path d="M163.363 292.608C165.001 293.343 166.694 293.891 168.402 294.437C168.727 294.543 169.052 294.649 169.387 294.759C182.486 298.813 196.517 295.65 208.433 289.807C214.53 287.244 222.674 287.007 228.83 289.475C229.311 289.694 229.793 289.912 230.289 290.138C230.925 290.416 231.561 290.694 232.197 290.971C233.222 291.419 234.247 291.869 235.269 292.324C242.191 295.393 248.243 296.165 255.774 296.169C256.714 296.178 256.714 296.178 257.674 296.187C261.058 296.192 264.152 296.05 267.403 295.086C267.99 294.916 268.578 294.746 269.183 294.57C272.885 293.347 276.457 291.973 280 290.341C286.522 287.366 294.167 287.028 300.95 289.475C303.16 290.398 305.357 291.346 307.542 292.324C314.044 295.229 319.757 296.083 326.816 296.354C327.338 296.376 327.861 296.397 328.4 296.419C329.676 296.471 330.952 296.522 332.228 296.571C330.392 302.769 326.66 308.568 323.166 313.952C322.923 314.336 322.68 314.72 322.43 315.116C320.736 317.657 320.736 317.657 319.176 318.439C317.292 318.302 315.753 317.57 314.073 316.767C313.361 316.442 312.648 316.118 311.935 315.795C311.277 315.49 310.618 315.185 309.96 314.88C299.669 310.175 286.491 309.8 275.784 313.574C272.947 314.65 270.21 315.944 267.465 317.231C265.156 318.293 262.985 318.956 260.475 319.334C259.877 319.433 259.877 319.433 259.267 319.535C252.803 320.383 246.997 319.129 241.176 316.365C236.065 314.153 236.065 314.153 230.784 312.406C230.42 312.304 230.057 312.202 229.682 312.097C218.787 309.606 206.704 311.726 196.767 316.525C189.196 320.179 181.427 320.853 173.381 318.344C171.506 317.609 169.689 316.755 167.867 315.9C165.278 314.699 162.698 313.73 159.959 312.932C159.625 312.833 159.292 312.735 158.948 312.633C146.678 309.204 134.203 311.854 123.075 317.443C121.719 317.919 121.262 317.862 119.938 317.355C119.201 316.569 119.201 316.569 118.511 315.545C118.252 315.166 117.994 314.786 117.727 314.395C117.456 313.983 117.186 313.572 116.907 313.148C116.485 312.519 116.485 312.519 116.055 311.876C114.197 309.074 112.408 306.233 110.69 303.344C110.488 303.005 110.285 302.665 110.076 302.316C108.99 300.447 108.172 298.661 107.566 296.571C108.189 296.552 108.812 296.534 109.453 296.515C119.907 296.145 127.896 293.738 137.371 289.407C146.273 285.836 155.31 288.34 163.363 292.608Z" fill="#2DCAEE"/>
<path d="M161.771 334.328C167.929 337.474 173.978 338.686 180.804 339.128C181.482 339.173 181.482 339.173 182.173 339.219C183.379 339.254 184.549 339.208 185.753 339.128C186.353 339.094 186.953 339.06 187.572 339.026C195.191 338.446 202.264 335.751 209.05 332.33C212.492 330.843 215.67 330.547 219.372 330.561C219.789 330.553 220.206 330.545 220.635 330.537C225.035 330.533 228.528 332.03 232.487 333.814C240.045 337.203 246.51 338.8 254.815 338.85C255.454 338.855 256.092 338.86 256.75 338.865C263.282 338.805 269.216 337.734 275.135 334.953C276.031 334.555 276.928 334.159 277.826 333.766C278.248 333.58 278.67 333.394 279.106 333.202C286.274 330.079 293.728 329.523 301.171 332.117C302.651 332.743 304.078 333.443 305.506 334.179C303.626 336.475 301.679 338.541 299.414 340.458C299.117 340.71 298.819 340.962 298.513 341.221C289.832 348.46 280.068 354.095 269.877 358.922C269.121 359.291 269.121 359.291 268.35 359.668C242.787 371.452 211.455 372.813 184.763 364.365C184.421 364.257 184.079 364.149 183.726 364.038C165.718 358.169 148.544 347.132 135.278 333.685C136.004 332.233 136.881 332.165 138.402 331.643C146.53 329.251 154.376 330.502 161.771 334.328Z" fill="#27C2EB"/>
<defs>
<linearGradient id="paint0_linear_43_326" x1="0.123047" y1="0.651001" x2="489.027" y2="436.443" gradientUnits="userSpaceOnUse">
<stop stop-color="#008CDA"/>
<stop offset="0.500371" stop-color="#34D4F2"/>
<stop offset="1" stop-color="#ACE2E1"/>
</linearGradient>
</defs>
</svg>
