<svg width="[object Object]" height="471" viewBox="0 0 572 471" fill="none" xmlns="http://www.w3.org/2000/svg"><path d="M51 64C51 47.0261 57.7428 30.7475 69.7452 18.7452C81.7475 6.74284 98.0261 5.50434e-07 115 2.03434e-06C131.974 3.51824e-06 148.253 6.74284 160.255 18.7452C172.257 30.7475 179 47.0261 179 64L115 64L51 64Z" fill="#49D7A0"></path><path d="M392 64C392 47.0261 398.743 30.7475 410.745 18.7452C422.747 6.74284 439.026 5.50434e-07 456 2.03434e-06C472.974 3.51824e-06 489.253 6.74284 501.255 18.7452C513.257 30.7475 520 47.0261 520 64L456 64L392 64Z" fill="#49D7A0"></path><path d="M232 253C232 283.765 219.779 313.27 198.024 335.024C176.27 356.779 146.765 369 116 369C85.2349 369 55.7298 356.779 33.9756 335.024C12.2214 313.27 4.6454e-06 283.765 0 253L116 253H232Z" fill="#30B68F"></path><path d="M572 253C572 283.765 559.779 313.27 538.024 335.024C516.27 356.779 486.765 369 456 369C425.235 369 395.73 356.779 373.976 335.024C352.221 313.27 340 283.765 340 253L456 253H572Z" fill="#30B68F"></path><path d="M99.5469 465H87.2049V463.438C87.2049 460.71 88.2829 459.346 91.3189 458.312L94.8389 457.102C96.5989 456.464 97.2149 455.87 97.2149 454.572C97.2149 453.01 96.2029 452.218 93.5629 452.218C90.6149 452.218 89.5149 453.252 89.5149 455.188V455.452H87.1829V455.232C87.1829 452.504 89.0529 450.04 93.6509 450.04C97.8309 450.04 99.5909 452.02 99.5909 454.616C99.5909 457.036 98.0289 458.312 95.4329 459.104L92.3309 460.05C90.3509 460.732 89.6689 461.436 89.6689 463.108L93.2329 462.866H99.5469V465ZM107.554 465.22C103.11 465.22 100.47 462.316 100.47 457.63C100.47 452.966 103.11 450.04 107.554 450.04C111.998 450.04 114.638 452.966 114.638 457.63C114.638 462.316 111.998 465.22 107.554 465.22ZM107.554 462.932C110.7 462.932 112.108 461.304 112.108 457.63C112.108 453.956 110.7 452.328 107.554 452.328C104.408 452.328 102.978 453.956 102.978 457.63C102.978 461.304 104.408 462.932 107.554 462.932ZM127.95 465H115.608V463.438C115.608 460.71 116.686 459.346 119.722 458.312L123.242 457.102C125.002 456.464 125.618 455.87 125.618 454.572C125.618 453.01 124.606 452.218 121.966 452.218C119.018 452.218 117.918 453.252 117.918 455.188V455.452H115.586V455.232C115.586 452.504 117.456 450.04 122.054 450.04C126.234 450.04 127.994 452.02 127.994 454.616C127.994 457.036 126.432 458.312 123.836 459.104L120.734 460.05C118.754 460.732 118.072 461.436 118.072 463.108L121.636 462.866H127.95V465ZM135.517 465.22C130.897 465.22 128.873 463.174 128.873 460.182V459.83H131.381V460.138C131.381 462.074 132.173 462.976 135.429 462.976C138.487 462.976 139.587 462.272 139.587 460.534C139.587 459.038 138.575 458.356 136.727 458.356H132.613V456.376H136.397C138.179 456.376 139.103 455.716 139.103 454.396C139.103 452.966 138.223 452.284 135.363 452.284C132.349 452.284 131.381 453.186 131.381 455.122V455.276H128.873V455.078C128.873 452.196 130.985 450.04 135.561 450.04C139.323 450.04 141.457 451.426 141.457 453.934C141.457 455.606 140.467 456.794 138.575 457.102V457.278C140.709 457.652 141.985 458.84 141.985 460.886C141.985 463.68 139.543 465.22 135.517 465.22Z" fill="#007F73"></path><path d="M443.117 465H430.775V463.438C430.775 460.71 431.853 459.346 434.889 458.312L438.409 457.102C440.169 456.464 440.785 455.87 440.785 454.572C440.785 453.01 439.773 452.218 437.133 452.218C434.185 452.218 433.085 453.252 433.085 455.188V455.452H430.753V455.232C430.753 452.504 432.623 450.04 437.221 450.04C441.401 450.04 443.161 452.02 443.161 454.616C443.161 457.036 441.599 458.312 439.003 459.104L435.901 460.05C433.921 460.732 433.239 461.436 433.239 463.108L436.803 462.866H443.117V465ZM451.124 465.22C446.68 465.22 444.04 462.316 444.04 457.63C444.04 452.966 446.68 450.04 451.124 450.04C455.568 450.04 458.208 452.966 458.208 457.63C458.208 462.316 455.568 465.22 451.124 465.22ZM451.124 462.932C454.27 462.932 455.678 461.304 455.678 457.63C455.678 453.956 454.27 452.328 451.124 452.328C447.978 452.328 446.548 453.956 446.548 457.63C446.548 461.304 447.978 462.932 451.124 462.932ZM471.52 465H459.178V463.438C459.178 460.71 460.256 459.346 463.292 458.312L466.812 457.102C468.572 456.464 469.188 455.87 469.188 454.572C469.188 453.01 468.176 452.218 465.536 452.218C462.588 452.218 461.488 453.252 461.488 455.188V455.452H459.156V455.232C459.156 452.504 461.026 450.04 465.624 450.04C469.804 450.04 471.564 452.02 471.564 454.616C471.564 457.036 470.002 458.312 467.406 459.104L464.304 460.05C462.324 460.732 461.642 461.436 461.642 463.108L465.206 462.866H471.52V465ZM483.993 465H481.639V462.008H472.223V460.358L481.243 450.26H483.993V459.874H486.523V462.008H483.993V465ZM475.501 459.874H481.639V453.032H481.463L475.501 459.698V459.874Z" fill="#007F73"></path><g clip-path="url(#clip0_2001_704)"><rect x="17" y="157" width="193" height="193" rx="96.5" fill="#F1F1F1"></rect><path d="M87.2383 262.5H49.1582V256.356C49.1582 248.804 52.4222 244.9 61.4462 241.892L72.4543 238.308C76.2943 236.964 77.7022 235.684 77.7022 232.868C77.7022 229.604 75.9102 227.748 68.8703 227.748C60.9982 227.748 58.6302 230.116 58.6302 234.852V235.684H49.2222V234.852C49.2222 226.532 54.9182 218.98 69.1903 218.98C82.1183 218.98 87.3662 224.868 87.3662 232.996C87.3662 240.612 82.3743 244.388 74.7582 246.5L65.4142 249.06C61.2542 250.34 59.2702 251.556 59.2702 254.948L70.4702 253.86H87.2383V262.5ZM110.634 263.14C96.8098 263.14 89.1938 254.436 89.1938 241.06C89.1938 227.748 96.8098 218.98 110.634 218.98C124.394 218.98 132.074 227.748 132.074 241.06C132.074 254.436 124.394 263.14 110.634 263.14ZM110.634 253.796C118.762 253.796 121.77 250.276 121.77 241.06C121.77 231.844 118.762 228.324 110.634 228.324C102.442 228.324 99.4978 231.844 99.4978 241.06C99.4978 250.276 102.442 253.796 110.634 253.796ZM155.354 263.14C141.53 263.14 133.914 254.436 133.914 241.06C133.914 227.748 141.53 218.98 155.354 218.98C169.114 218.98 176.794 227.748 176.794 241.06C176.794 254.436 169.114 263.14 155.354 263.14ZM155.354 253.796C163.482 253.796 166.49 250.276 166.49 241.06C166.49 231.844 163.482 228.324 155.354 228.324C147.162 228.324 144.218 231.844 144.218 241.06C144.218 250.276 147.162 253.796 155.354 253.796Z" fill="#007F73"></path><path d="M74.7952 298.74C70.9312 298.74 68.3632 296.172 68.3632 292.572C68.3632 288.972 70.9312 286.404 74.7952 286.404C78.6832 286.404 81.2512 288.972 81.2512 292.572C81.2512 296.172 78.6832 298.74 74.7952 298.74ZM74.7952 297.204C78.0592 297.204 79.5712 295.452 79.5712 292.572C79.5712 289.716 78.0592 287.94 74.7952 287.94C71.5312 287.94 70.0432 289.716 70.0432 292.572C70.0432 295.452 71.5312 297.204 74.7952 297.204ZM82.7984 287.868H82.2944V286.836H82.7744C83.0864 286.836 83.2544 286.74 83.2544 286.308V285.756H82.3184V282.42H84.4304V286.284C84.4304 287.364 83.8064 287.868 82.7984 287.868ZM91.1849 298.74C87.4169 298.74 85.3289 296.172 85.3289 292.572C85.3289 288.972 87.4409 286.404 91.1369 286.404C93.9449 286.404 95.7209 287.844 96.2489 289.98H96.4409V286.644H98.0009V302.58H96.2969V295.02H96.2489C95.6969 297.3 93.8009 298.74 91.1849 298.74ZM87.0569 292.572C87.0569 296.004 88.8809 297.18 91.6649 297.18C94.4489 297.18 96.2969 295.596 96.2969 292.788V292.572C96.2969 289.644 94.5449 287.988 91.6169 287.988C88.9049 287.988 87.0569 289.14 87.0569 292.572ZM105.351 298.74C101.967 298.74 100.311 296.388 100.311 293.58V286.644H102.015V293.316C102.015 295.788 103.215 297.204 105.951 297.204C108.855 297.204 110.367 295.452 110.367 292.404V286.644H112.071V298.5H110.535V294.804H110.415C110.007 296.82 108.303 298.74 105.351 298.74ZM121.01 298.5H118.922L113.258 286.644H115.106L119.906 296.82H120.05L124.826 286.644H126.674L121.01 298.5ZM133.54 298.74C129.748 298.74 127.276 296.172 127.276 292.572C127.276 288.972 129.748 286.404 133.54 286.404C136.852 286.404 139.444 288.372 139.444 291.228V291.42H137.764V291.276C137.764 289.164 136.228 287.964 133.516 287.964C130.348 287.964 128.98 289.668 128.98 292.572C128.98 295.476 130.348 297.18 133.516 297.18C136.228 297.18 137.764 295.98 137.764 293.868V293.724H139.444V293.916C139.444 296.772 136.852 298.74 133.54 298.74ZM142.952 298.5H141.248V282.42H142.952V290.268H143.072C143.456 288.276 144.992 286.404 148.016 286.404C151.328 286.404 152.984 288.612 152.984 291.612V298.5H151.28V291.828C151.28 289.116 150.008 287.964 147.344 287.964C144.176 287.964 142.952 289.98 142.952 292.932V298.5ZM157.027 285.132H155.323V282.42H157.027V285.132ZM157.027 298.5H155.323V286.644H157.027V298.5Z" fill="#007F73"></path></g><rect x="17.5" y="157.5" width="192" height="192" rx="96" stroke="url(#paint0_linear_2001_704)"></rect><rect x="57.5" y="7.5" width="115" height="115" rx="57.5" fill="#F1F1F1"></rect><rect x="57.5" y="7.5" width="115" height="115" rx="57.5" stroke="url(#paint1_linear_2001_704)"></rect><path d="M94.7961 25.041C108.353 25.041 121.909 25.041 135.877 25.041C135.877 27.6719 135.877 30.3027 135.877 33.0133C140.86 33.0133 145.843 33.0133 150.977 33.0133C150.985 41.3101 150.985 41.3101 150.986 44.7874C150.987 45.5832 150.987 46.379 150.987 47.1747C150.988 47.2745 150.988 47.3742 150.988 47.4769C150.988 49.0818 150.99 50.6867 150.992 52.2916C150.993 53.9416 150.994 55.5916 150.995 57.2416C150.995 58.2577 150.996 59.2739 150.997 60.29C150.998 60.9891 150.999 61.6882 150.998 62.3873C150.998 62.7892 150.999 63.1911 151 63.593C151.005 65.9001 150.967 68.2032 150.614 70.4888C150.598 70.5968 150.582 70.7048 150.565 70.8161C150.425 71.7297 150.25 72.6316 150.039 73.5312C149.999 73.7077 149.999 73.7077 149.959 73.8877C148.863 78.5164 146.911 83.05 144.063 86.8751C143.933 87.0497 143.806 87.2255 143.678 87.4013C143.027 88.2887 142.333 89.126 141.598 89.9447C141.554 89.994 141.51 90.0434 141.465 90.0942C140.328 91.3686 139.137 92.6606 137.786 93.7096C137.549 93.8963 137.329 94.0955 137.108 94.3001C134.113 97.0179 130.407 99.1613 126.788 100.917C126.65 100.983 126.514 101.051 126.377 101.118C123.305 102.636 120.005 103.944 116.659 104.715C116.481 104.759 116.305 104.815 116.13 104.871C115.346 105.065 114.665 104.908 113.9 104.693C113.796 104.665 113.693 104.636 113.586 104.606C109.943 103.576 106.423 102.19 103.057 100.456C102.919 100.385 102.781 100.314 102.642 100.244C99.5076 98.6592 96.5492 96.7047 93.8582 94.4467C93.8006 94.3984 93.7431 94.3502 93.6838 94.3005C92.562 93.3563 91.4911 92.3688 90.4524 91.334C90.3728 91.2549 90.2932 91.1757 90.2113 91.0942C89.7505 90.6323 89.3102 90.1599 88.8872 89.6633C88.8039 89.5676 88.7204 89.4718 88.637 89.3761C83.9465 83.9075 81.0204 77.1257 80.0994 69.9987C80.0726 69.7933 80.0443 69.5882 80.0155 69.3831C79.7539 67.447 79.7761 65.5052 79.7786 63.556C79.779 63.1451 79.7788 62.7343 79.7788 62.3235C79.7787 61.6136 79.779 60.9037 79.7795 60.1937C79.7803 59.1674 79.7805 58.141 79.7807 57.1146C79.7809 55.4489 79.7815 53.7832 79.7824 52.1175C79.7832 50.5004 79.7839 48.8834 79.7843 47.2663C79.7843 47.1655 79.7844 47.0646 79.7844 46.9607C79.7846 46.1717 79.7848 45.3827 79.7849 44.5938C79.7858 40.7336 79.7877 36.8734 79.7895 33.0133C84.7416 33.0133 89.6938 33.0133 94.7961 33.0133C94.7961 30.3824 94.7961 27.7516 94.7961 25.041Z" fill="url(#paint2_linear_2001_704)"></path><path d="M98.4529 28.8867C103.281 28.8867 108.11 28.8867 113.084 28.8867C113.084 34.0865 113.084 39.2863 113.084 44.6437C112.28 44.7984 111.475 44.9532 110.646 45.1126C108.03 45.7779 105.596 46.8797 103.424 48.4891C103.367 48.5308 103.311 48.5725 103.253 48.6155C102.124 49.4581 101.028 50.3918 100.141 51.4905C100.057 51.5912 99.9727 51.692 99.8884 51.7927C96.3215 56.1016 94.7991 61.5518 95.3116 67.0969C95.4332 68.1424 95.6952 69.1539 96.0143 70.155C96.0345 70.2197 96.0547 70.2844 96.0754 70.351C96.5782 71.944 97.3096 73.4476 98.1983 74.8599C98.3591 75.1259 98.3591 75.1259 98.4529 75.4073C99.3102 74.9598 100.13 74.456 100.952 73.9485C101.232 73.7763 101.513 73.6054 101.793 73.4345C102.469 73.0223 103.144 72.6066 103.817 72.1891C104.615 71.6941 105.415 71.2019 106.219 70.7163C106.621 70.473 107.022 70.2283 107.417 69.9718C107.481 69.9309 107.545 69.8901 107.611 69.848C107.727 69.7741 107.841 69.6986 107.955 69.6214C108.108 69.5248 108.108 69.5248 108.395 69.4046C108.869 69.5248 109.302 69.746 109.741 69.9575C109.816 69.9935 109.892 70.0296 109.969 70.0667C110.131 70.1439 110.292 70.2212 110.454 70.2986C110.706 70.4195 110.958 70.5399 111.211 70.6601C111.853 70.9657 112.495 71.2714 113.136 71.579C113.445 71.7274 113.755 71.8749 114.065 72.0215C114.23 72.0997 114.395 72.1792 114.559 72.2586C114.657 72.3048 114.755 72.351 114.856 72.3986C114.94 72.4389 115.025 72.4791 115.111 72.5205C115.371 72.6052 115.46 72.6025 115.711 72.4998C115.888 72.403 116.063 72.3005 116.236 72.1946C116.341 72.1306 116.446 72.0665 116.554 72.0006C116.667 71.9306 116.781 71.8605 116.895 71.7905C117.011 71.719 117.128 71.6475 117.245 71.5761C117.548 71.3904 117.851 71.204 118.154 71.0175C118.393 70.8709 118.631 70.7246 118.87 70.5783C119.349 70.2844 119.828 69.9901 120.307 69.6952C120.433 69.6176 120.433 69.6176 120.561 69.5384C120.728 69.4341 120.893 69.3262 121.057 69.2171C121.523 69.2453 121.908 69.4249 122.322 69.6267C122.39 69.6591 122.458 69.6916 122.528 69.725C122.753 69.8325 122.978 69.941 123.202 70.0494C123.361 70.1258 123.521 70.2021 123.68 70.2783C124.014 70.4378 124.347 70.5977 124.681 70.7579C125.163 70.9893 125.645 71.2191 126.128 71.4483C126.205 71.4848 126.282 71.5214 126.361 71.559C126.594 71.6694 126.827 71.7798 127.059 71.8901C127.37 72.0373 127.68 72.1846 127.99 72.332C128.067 72.3685 128.144 72.4049 128.223 72.4426C128.714 72.6756 129.204 72.9096 129.694 73.1442C130.024 73.3022 130.355 73.4598 130.685 73.6174C130.842 73.6923 130.999 73.7675 131.155 73.8428C131.372 73.9469 131.589 74.0503 131.806 74.1536C131.869 74.1843 131.933 74.2151 131.998 74.2468C132.32 74.399 132.615 74.513 132.968 74.5632C133.189 74.1261 133.408 73.6882 133.626 73.2492C133.699 73.1018 133.774 72.9552 133.85 72.809C134.465 71.5611 134.796 70.1448 135.108 68.795C135.126 68.7168 135.144 68.6386 135.163 68.558C135.436 67.3236 135.536 66.1094 135.53 64.8499C135.53 64.7805 135.53 64.7112 135.529 64.6397C135.524 63.458 135.445 62.3132 135.219 61.151C135.204 61.0675 135.188 60.984 135.172 60.898C134.808 58.998 134.165 57.2254 133.25 55.5235C133.201 55.4305 133.153 55.3375 133.104 55.2418C132.371 53.8487 131.415 52.5763 130.349 51.4212C130.173 51.2294 130.005 51.0331 129.838 50.8339C127.904 48.6254 125.14 47.0718 122.464 45.9568C122.359 45.9125 122.254 45.8683 122.146 45.8227C120.641 45.2145 119.094 44.9349 117.493 44.6437C117.493 39.4439 117.493 34.2441 117.493 28.8867C122.352 28.8867 127.211 28.8867 132.218 28.8867C132.218 30.1248 132.218 31.3628 132.218 32.6384C128.627 32.6384 125.037 32.6384 121.338 32.6384C121.338 35.5787 121.338 38.5191 121.338 41.5486C121.648 41.6105 121.957 41.6724 122.276 41.7361C127.951 43.3129 133.14 47.4056 136.053 52.5234C137.511 55.1361 138.563 57.8177 139.065 60.7758C139.086 60.8907 139.086 60.8907 139.107 61.0078C139.509 63.2261 139.448 65.5529 139.183 67.7853C139.166 67.9346 139.15 68.0841 139.135 68.2337C139.127 68.3096 139.119 68.3856 139.111 68.4638C139.104 68.5319 139.098 68.6 139.091 68.6702C139.065 68.8419 139.065 68.8419 138.971 69.0295C138.959 69.1512 138.948 69.273 138.936 69.3984C138.881 69.9213 138.746 70.4085 138.596 70.9112C138.567 71.0089 138.538 71.1067 138.508 71.2074C137.564 74.3163 136.18 77.2163 134.094 79.7217C134.031 79.7989 134.031 79.7989 133.966 79.8777C132.869 81.2239 131.643 82.5269 130.248 83.5671C130.19 83.6114 130.131 83.6556 130.071 83.7012C127.873 85.3622 125.492 86.6884 122.863 87.5318C122.664 87.5959 122.467 87.6629 122.27 87.731C116.96 89.5293 110.404 89.0257 105.37 86.5747C105.123 86.4509 104.879 86.3234 104.635 86.194C104.457 86.1002 104.278 86.009 104.099 85.9182C102.82 85.2627 101.646 84.4548 100.516 83.5671C100.428 83.498 100.339 83.4288 100.248 83.3576C99.5394 82.7811 98.8893 82.1474 98.2419 81.5037C98.1121 81.3752 98.1121 81.3752 97.9796 81.2441C97.1839 80.4447 96.4729 79.5907 95.8267 78.6665C95.7555 78.5649 95.7555 78.5649 95.6828 78.4612C95.2285 77.8057 94.8119 77.1333 94.4199 76.439C94.3855 76.3786 94.3511 76.3183 94.3156 76.2561C93.6842 75.1397 93.19 73.9779 92.7316 72.7811C92.7075 72.7191 92.6833 72.6571 92.6584 72.5931C92.3521 71.7957 92.1588 70.9747 91.9696 70.1432C91.9469 70.0444 91.9242 69.9456 91.9008 69.8438C91.5353 68.1741 91.3683 66.5348 91.3834 64.8264C91.3841 64.6913 91.3841 64.6913 91.3848 64.5535C91.419 58.9156 93.3733 53.5375 97.046 49.2395C97.1058 49.1692 97.1655 49.099 97.227 49.0266C98.2889 47.814 99.4317 46.6465 100.736 45.6951C100.891 45.5818 101.045 45.4662 101.199 45.3504C103.327 43.7664 105.698 42.6096 108.219 41.8006C108.297 41.7756 108.375 41.7505 108.455 41.7247C108.528 41.7018 108.602 41.6788 108.677 41.6552C108.775 41.6243 108.775 41.6243 108.875 41.5928C109.051 41.5486 109.051 41.5486 109.333 41.5486C109.333 38.6082 109.333 35.6678 109.333 32.6384C105.742 32.6384 102.152 32.6384 98.4529 32.6384C98.4529 31.4003 98.4529 30.1623 98.4529 28.8867Z" fill="#FDFEFE"></path><path d="M83.2597 36.4834C89.9761 36.4834 96.6925 36.4834 103.612 36.4834C103.435 36.9266 103.256 37.1688 102.927 37.4917C102.877 37.5408 102.827 37.5899 102.775 37.6405C101.062 39.2814 98.7337 40.2734 96.3601 40.2564C96.2584 40.2564 96.1567 40.2564 96.0519 40.2564C95.719 40.2563 95.3862 40.2549 95.0533 40.2534C94.8212 40.253 94.5891 40.2528 94.357 40.2526C93.7486 40.2519 93.1402 40.25 92.5317 40.2479C91.9099 40.246 91.2881 40.2452 90.6663 40.2442C89.448 40.2422 88.2297 40.239 87.0114 40.2351C87.0169 43.4363 87.0239 46.6376 87.0328 49.8389C87.0339 50.2189 87.035 50.5989 87.036 50.9789C87.0362 51.0546 87.0364 51.1302 87.0366 51.2082C87.0399 52.4245 87.0423 53.6409 87.0442 54.8572C87.0463 56.1102 87.0494 57.3632 87.0535 58.6162C87.0557 59.3179 87.0575 60.0196 87.058 60.7213C87.0495 64.3079 87.0495 64.3079 87.2313 67.8885C87.2367 67.9566 87.2422 68.0247 87.2478 68.0949C87.5505 71.7312 88.534 75.3063 90.1065 78.5958C90.1483 78.6833 90.19 78.7708 90.2331 78.861C92.1461 82.8112 95.103 86.3835 98.5477 89.1004C98.6432 89.1778 98.7387 89.2552 98.8372 89.3349C103.339 92.9617 108.554 95.3235 114.023 97.0727C114.117 97.1039 114.211 97.1351 114.308 97.1672C115.035 97.402 115.609 97.3882 116.345 97.1723C116.416 97.1517 116.488 97.1311 116.562 97.1099C123.259 95.1462 129.843 91.8071 134.751 86.7556C134.98 86.5259 135.209 86.2975 135.441 86.072C136.008 85.5187 136.514 84.9401 137.002 84.317C137.047 84.2606 137.092 84.2042 137.138 84.146C138.493 82.4389 139.601 80.6424 140.566 78.6896C140.6 78.622 140.633 78.5544 140.668 78.4848C141.241 77.324 141.759 76.1067 142.104 74.8573C142.177 74.5998 142.263 74.3476 142.348 74.0938C142.693 73.0292 142.918 71.946 143.116 70.8462C143.128 70.7825 143.14 70.7188 143.152 70.6532C143.542 68.5373 143.596 66.4113 143.598 64.2649C143.598 64.0021 143.599 63.7394 143.6 63.4766C143.602 62.916 143.604 62.3553 143.605 61.7946C143.606 60.984 143.609 60.1734 143.611 59.3628C143.615 58.047 143.619 56.7312 143.622 55.4154C143.625 54.1388 143.628 52.8622 143.632 51.5857C143.632 51.5067 143.632 51.4277 143.632 51.3463C143.634 50.9501 143.635 50.5538 143.636 50.1575C143.646 46.8813 143.654 43.6051 143.661 40.3288C143.538 40.3295 143.415 40.3301 143.288 40.3307C142.119 40.3365 140.95 40.3407 139.782 40.3434C139.181 40.3449 138.581 40.3469 137.98 40.3501C137.399 40.3532 136.818 40.3548 136.238 40.3555C136.017 40.3561 135.797 40.3571 135.576 40.3586C132.85 40.3768 130.29 39.9397 128.186 38.0779C128.104 38.0069 128.021 37.9359 127.937 37.8628C127.514 37.4915 127.112 37.1261 126.779 36.671C126.779 36.6091 126.779 36.5472 126.779 36.4834C133.619 36.4834 140.459 36.4834 147.507 36.4834C147.518 43.8122 147.518 43.8122 147.521 46.8919C147.521 47.5965 147.522 48.3012 147.522 49.0059C147.522 49.1384 147.522 49.1384 147.523 49.2735C147.524 50.6918 147.526 52.11 147.529 53.5283C147.531 54.9881 147.533 56.4478 147.533 57.9076C147.534 58.8055 147.535 59.7034 147.537 60.6013C147.539 61.2203 147.539 61.8393 147.539 62.4583C147.539 62.8134 147.539 63.1684 147.54 63.5235C147.547 65.0079 147.506 66.4779 147.378 67.9575C147.372 68.0245 147.367 68.0915 147.361 68.1605C147.012 72.1569 146.004 76.0795 144.318 79.7213C144.277 79.8104 144.236 79.8995 144.193 79.9913C143.323 81.8483 142.271 83.6177 141.035 85.255C140.998 85.3054 140.96 85.3558 140.921 85.4077C139.319 87.5503 137.481 89.7108 135.364 91.3536C135.141 91.5279 134.926 91.7103 134.713 91.8965C129.432 96.4721 122.774 99.3842 116.087 101.2C116.02 101.218 115.952 101.236 115.883 101.255C115.341 101.376 114.814 101.263 114.287 101.129C114.209 101.109 114.131 101.09 114.05 101.069C111.805 100.474 109.591 99.6732 107.458 98.7609C107.378 98.727 107.299 98.6932 107.217 98.6583C106.667 98.4219 106.123 98.1734 105.582 97.9168C105.491 97.8735 105.399 97.8301 105.305 97.7855C102.453 96.4214 99.75 94.7684 97.2346 92.8521C97.178 92.8089 97.1213 92.7658 97.0629 92.7213C96.4171 92.2272 95.792 91.7195 95.1932 91.1686C94.9976 90.989 94.7982 90.8151 94.5968 90.6421C94.2659 90.3547 93.9593 90.0477 93.6522 89.7353C93.4778 89.5581 93.4778 89.5581 93.2426 89.3818C92.97 89.1581 92.7559 88.9051 92.5275 88.6373C92.3719 88.4602 92.2107 88.2966 92.0409 88.1332C91.6078 87.7058 91.2354 87.2311 90.8568 86.7556C90.7756 86.6549 90.6944 86.5541 90.6132 86.4534C86.8304 81.7328 84.4612 76.0951 83.6232 70.1135C83.6008 69.9547 83.6008 69.9547 83.5781 69.7926C83.5402 69.5115 83.505 69.2301 83.4713 68.9484C83.4556 68.8166 83.4395 68.6849 83.423 68.5532C83.2377 67.0333 83.2337 65.5168 83.2379 63.9882C83.2388 63.6179 83.2385 63.2476 83.2383 62.8772C83.2382 62.2379 83.2388 61.5986 83.2399 60.9593C83.2414 60.0351 83.2419 59.1108 83.2421 58.1865C83.2425 56.6864 83.2438 55.1863 83.2456 53.6862C83.2473 52.2303 83.2486 50.7744 83.2494 49.3185C83.2495 49.2276 83.2495 49.1367 83.2496 49.0431C83.25 48.3321 83.2503 47.6212 83.2507 46.9102C83.2524 43.4346 83.2562 39.959 83.2597 36.4834Z" fill="#FCFEFD"></path><path d="M113.647 49.0518C114.792 49.0518 115.938 49.0518 117.117 49.0518C117.148 52.4254 117.179 55.7991 117.211 59.275C119.595 56.8918 121.978 54.5085 124.433 52.0531C124.829 52.3925 125.2 52.7144 125.564 53.0811C125.647 53.1639 125.729 53.2468 125.814 53.3321C125.94 53.4592 125.94 53.4592 126.069 53.5889C126.155 53.6758 126.242 53.7628 126.331 53.8523C126.543 54.0652 126.754 54.2783 126.966 54.4917C126.572 54.9612 126.162 55.4022 125.728 55.834C125.662 55.9001 125.596 55.9662 125.527 56.0343C125.316 56.2461 125.103 56.4576 124.891 56.669C124.76 56.8006 124.628 56.9321 124.496 57.0637C124.01 57.549 123.524 58.0339 123.038 58.5188C121.951 59.6041 120.864 60.6893 119.744 61.8074C123.117 61.8383 126.491 61.8693 129.967 61.9012C129.967 63.0464 129.967 64.1916 129.967 65.3715C128.6 65.3842 127.232 65.3946 125.865 65.4006C125.23 65.4035 124.595 65.4075 123.96 65.4139C123.347 65.4202 122.734 65.4234 122.121 65.4249C121.888 65.4259 121.654 65.4279 121.421 65.431C121.093 65.4351 120.765 65.4356 120.437 65.4354C120.341 65.4374 120.245 65.4394 120.146 65.4415C119.282 65.4341 118.78 65.069 118.178 64.4797C118.07 64.3674 117.963 64.2543 117.856 64.1405C117.244 63.4865 116.633 63.0119 115.71 62.8981C114.533 62.873 113.746 63.2473 112.912 64.0428C112.714 64.236 112.522 64.4333 112.332 64.6332C111.836 65.1533 111.367 65.4762 110.629 65.5104C110.444 65.5115 110.259 65.5105 110.074 65.5079C109.972 65.5079 109.871 65.508 109.766 65.508C109.432 65.5078 109.098 65.5048 108.764 65.5019C108.532 65.5012 108.3 65.5007 108.067 65.5003C107.457 65.4989 106.847 65.4952 106.237 65.491C105.614 65.4872 104.991 65.4855 104.368 65.4836C103.147 65.4796 101.925 65.473 100.704 65.4653C100.704 64.2891 100.704 63.113 100.704 61.9012C104.078 61.8702 107.451 61.8393 110.927 61.8074C108.575 59.4551 106.223 57.1028 103.799 54.6792C103.987 54.3035 104.203 54.0633 104.497 53.775C104.547 53.7256 104.597 53.6762 104.648 53.6252C104.806 53.4681 104.965 53.3116 105.124 53.1551C105.232 53.0484 105.339 52.9417 105.447 52.8349C105.71 52.5738 105.974 52.3133 106.238 52.0531C106.703 52.4436 107.142 52.8498 107.571 53.2794C107.636 53.3432 107.7 53.4071 107.766 53.4728C107.976 53.6818 108.185 53.891 108.395 54.1004C108.541 54.2463 108.687 54.3923 108.833 54.5382C109.139 54.843 109.444 55.1479 109.749 55.453C110.141 55.8448 110.533 56.2359 110.926 56.6269C111.227 56.9275 111.528 57.2285 111.83 57.5297C111.974 57.6742 112.119 57.8185 112.264 57.9627C112.465 58.1634 112.666 58.3647 112.867 58.5662C112.928 58.626 112.988 58.6859 113.05 58.7475C113.46 59.1598 113.46 59.1598 113.46 59.3688C113.522 59.3688 113.583 59.3688 113.647 59.3688C113.647 55.9642 113.647 52.5596 113.647 49.0518Z" fill="#FDFEFE"></path><path d="M121.808 73.0625C121.993 73.1418 122.175 73.2269 122.356 73.316C122.464 73.3687 122.571 73.4213 122.682 73.4756C122.739 73.5037 122.796 73.5319 122.855 73.5609C123.161 73.7122 123.468 73.8615 123.775 74.0111C123.838 74.0418 123.901 74.0725 123.966 74.1041C124.583 74.4042 125.206 74.6926 125.829 74.9794C126.795 75.425 127.756 75.8813 128.713 76.3452C128.774 76.3748 128.835 76.4044 128.898 76.4349C129.601 76.7755 130.302 77.1193 130.999 77.4707C130.801 77.8563 130.546 78.1218 130.238 78.4193C130.061 78.5961 129.9 78.7804 129.739 78.9714C129.407 79.355 129.043 79.6777 128.654 80.0031C128.536 80.107 128.536 80.107 128.416 80.213C126.462 81.9028 124.219 83.0548 121.808 83.9423C121.736 83.9688 121.664 83.9953 121.59 84.0226C120.505 84.4138 119.38 84.607 118.244 84.7864C118.142 84.8034 118.039 84.8204 117.934 84.8379C117.152 84.9608 116.391 85.0037 115.6 84.9975C115.481 84.9968 115.362 84.9961 115.24 84.9953C112.472 84.9638 108.295 84.4436 106.164 82.4742C106.127 82.4325 106.089 82.3908 106.051 82.3479C106.2 82.256 106.349 82.1642 106.498 82.0724C106.596 82.0124 106.693 81.9524 106.794 81.8906C107.013 81.7559 107.231 81.6212 107.45 81.4866C108.006 81.1444 108.562 80.8021 109.118 80.4596C110.357 79.6964 111.598 78.9373 112.841 78.1817C113.806 77.5949 114.769 77.005 115.729 76.4097C116.697 75.8092 117.67 75.2169 118.643 74.6254C119.04 74.3843 119.436 74.1427 119.832 73.9008C119.898 73.8606 119.964 73.8203 120.032 73.7789C120.094 73.7407 120.157 73.7024 120.222 73.663C120.282 73.6265 120.342 73.5899 120.405 73.5523C120.534 73.4718 120.66 73.3878 120.785 73.3014C120.85 73.2575 120.915 73.2136 120.981 73.1684C121.039 73.128 121.096 73.0875 121.155 73.0459C121.411 72.9383 121.544 72.9821 121.808 73.0625Z" fill="#44CF9C"></path><path d="M108.831 73.2064C109.26 73.3942 109.684 73.5913 110.107 73.7952C110.19 73.8352 110.274 73.8751 110.36 73.9163C110.927 74.1884 111.491 74.4677 112.053 74.7507C111.744 75.0056 111.432 75.2296 111.09 75.438C110.994 75.4968 110.898 75.5556 110.799 75.6161C110.697 75.6787 110.594 75.7414 110.488 75.8059C110.379 75.8724 110.27 75.9389 110.161 76.0055C109.935 76.1438 109.709 76.2819 109.483 76.42C109.059 76.6793 108.635 76.9404 108.212 77.2015C107.237 77.8024 106.261 78.4005 105.282 78.9943C104.906 79.2226 104.53 79.4514 104.157 79.6854C104.072 79.7387 104.072 79.7387 103.985 79.7931C103.843 79.8828 103.7 79.9731 103.558 80.0635C103.174 80.2778 103.174 80.2778 102.955 80.2844C102.746 80.1386 102.746 80.1386 102.521 79.921C102.439 79.8435 102.358 79.766 102.274 79.6861C102.147 79.5644 102.147 79.5644 102.017 79.4403C101.85 79.2893 101.682 79.1388 101.513 78.9889C101.235 78.7403 100.966 78.4868 100.704 78.221C100.827 77.852 100.971 77.8092 101.302 77.6128C101.38 77.5661 101.38 77.5661 101.46 77.5184C101.573 77.451 101.685 77.3841 101.798 77.3174C102.039 77.1758 102.278 77.0324 102.517 76.8891C102.64 76.8156 102.763 76.7421 102.886 76.6687C103.461 76.3247 104.029 75.9698 104.596 75.6124C105.366 75.1285 106.14 74.653 106.923 74.1904C107.247 73.9984 107.567 73.8057 107.876 73.5908C107.966 73.5286 108.056 73.4665 108.149 73.4025C108.221 73.3495 108.293 73.2965 108.368 73.242C108.582 73.1563 108.582 73.1563 108.831 73.2064Z" fill="#46D19D"></path><rect x="398.5" y="7.5" width="115" height="115" rx="57.5" fill="#F1F1F1"></rect><rect x="398.5" y="7.5" width="115" height="115" rx="57.5" stroke="url(#paint3_linear_2001_704)"></rect><path d="M435.796 25.041C449.353 25.041 462.909 25.041 476.877 25.041C476.877 27.6719 476.877 30.3027 476.877 33.0133C481.86 33.0133 486.843 33.0133 491.977 33.0133C491.985 41.3101 491.985 41.3101 491.986 44.7874C491.987 45.5832 491.987 46.379 491.987 47.1747C491.988 47.2745 491.988 47.3742 491.988 47.4769C491.988 49.0818 491.99 50.6867 491.992 52.2916C491.993 53.9416 491.994 55.5916 491.995 57.2416C491.995 58.2577 491.996 59.2739 491.997 60.29C491.998 60.9891 491.999 61.6882 491.998 62.3873C491.998 62.7892 491.999 63.1911 492 63.593C492.005 65.9001 491.967 68.2032 491.614 70.4888C491.598 70.5968 491.582 70.7048 491.565 70.8161C491.425 71.7297 491.25 72.6316 491.039 73.5312C490.999 73.7077 490.999 73.7077 490.959 73.8877C489.863 78.5164 487.911 83.05 485.063 86.8751C484.933 87.0497 484.806 87.2255 484.678 87.4013C484.027 88.2887 483.333 89.126 482.598 89.9447C482.554 89.994 482.51 90.0434 482.465 90.0942C481.328 91.3686 480.137 92.6606 478.786 93.7096C478.549 93.8963 478.329 94.0955 478.108 94.3001C475.113 97.0179 471.407 99.1613 467.788 100.917C467.65 100.983 467.514 101.051 467.377 101.118C464.305 102.636 461.005 103.944 457.659 104.715C457.481 104.759 457.305 104.815 457.13 104.871C456.346 105.065 455.665 104.908 454.9 104.693C454.796 104.665 454.693 104.636 454.586 104.606C450.943 103.576 447.423 102.19 444.057 100.456C443.919 100.385 443.781 100.314 443.642 100.244C440.508 98.6592 437.549 96.7047 434.858 94.4467C434.801 94.3984 434.743 94.3502 434.684 94.3005C433.562 93.3563 432.491 92.3688 431.452 91.334C431.373 91.2549 431.293 91.1757 431.211 91.0942C430.751 90.6323 430.31 90.1599 429.887 89.6633C429.804 89.5676 429.72 89.4718 429.637 89.3761C424.947 83.9075 422.02 77.1257 421.099 69.9987C421.073 69.7933 421.044 69.5882 421.016 69.3831C420.754 67.447 420.776 65.5052 420.779 63.556C420.779 63.1451 420.779 62.7343 420.779 62.3235C420.779 61.6136 420.779 60.9037 420.78 60.1937C420.78 59.1674 420.781 58.141 420.781 57.1146C420.781 55.4489 420.781 53.7832 420.782 52.1175C420.783 50.5004 420.784 48.8834 420.784 47.2663C420.784 47.1655 420.784 47.0646 420.784 46.9607C420.785 46.1717 420.785 45.3827 420.785 44.5938C420.786 40.7336 420.788 36.8734 420.789 33.0133C425.742 33.0133 430.694 33.0133 435.796 33.0133C435.796 30.3824 435.796 27.7516 435.796 25.041Z" fill="url(#paint4_linear_2001_704)"></path><path d="M439.453 28.8867C444.281 28.8867 449.11 28.8867 454.084 28.8867C454.084 34.0865 454.084 39.2863 454.084 44.6437C453.28 44.7984 452.475 44.9532 451.646 45.1126C449.03 45.7779 446.596 46.8797 444.424 48.4891C444.367 48.5308 444.311 48.5725 444.253 48.6155C443.124 49.4581 442.028 50.3918 441.141 51.4905C441.057 51.5912 440.973 51.692 440.888 51.7927C437.321 56.1016 435.799 61.5518 436.312 67.0969C436.433 68.1424 436.695 69.1539 437.014 70.155C437.034 70.2197 437.055 70.2844 437.075 70.351C437.578 71.944 438.31 73.4476 439.198 74.8599C439.359 75.1259 439.359 75.1259 439.453 75.4073C440.31 74.9598 441.13 74.456 441.952 73.9485C442.232 73.7763 442.513 73.6054 442.793 73.4345C443.469 73.0223 444.144 72.6066 444.817 72.1891C445.615 71.6941 446.415 71.2019 447.219 70.7163C447.621 70.473 448.022 70.2283 448.417 69.9718C448.481 69.9309 448.545 69.8901 448.611 69.848C448.727 69.7741 448.841 69.6986 448.955 69.6214C449.108 69.5248 449.108 69.5248 449.395 69.4046C449.869 69.5248 450.302 69.746 450.741 69.9575C450.816 69.9935 450.892 70.0296 450.969 70.0667C451.131 70.1439 451.292 70.2212 451.454 70.2986C451.706 70.4195 451.958 70.5399 452.211 70.6601C452.853 70.9657 453.495 71.2714 454.136 71.579C454.445 71.7274 454.755 71.8749 455.065 72.0215C455.23 72.0997 455.395 72.1792 455.559 72.2586C455.657 72.3048 455.755 72.351 455.856 72.3986C455.94 72.4389 456.025 72.4791 456.111 72.5205C456.371 72.6052 456.46 72.6025 456.711 72.4998C456.888 72.403 457.063 72.3005 457.236 72.1946C457.341 72.1306 457.446 72.0665 457.554 72.0006C457.667 71.9306 457.781 71.8605 457.895 71.7905C458.011 71.719 458.128 71.6475 458.245 71.5761C458.548 71.3904 458.851 71.204 459.154 71.0175C459.393 70.8709 459.631 70.7246 459.87 70.5783C460.349 70.2844 460.828 69.9901 461.307 69.6952C461.433 69.6176 461.433 69.6176 461.561 69.5384C461.728 69.4341 461.893 69.3262 462.057 69.2171C462.523 69.2453 462.908 69.4249 463.322 69.6267C463.39 69.6591 463.458 69.6916 463.528 69.725C463.753 69.8325 463.978 69.941 464.202 70.0494C464.361 70.1258 464.521 70.2021 464.68 70.2783C465.014 70.4378 465.347 70.5977 465.681 70.7579C466.163 70.9893 466.645 71.2191 467.128 71.4483C467.205 71.4848 467.282 71.5214 467.361 71.559C467.594 71.6694 467.827 71.7798 468.059 71.8901C468.37 72.0373 468.68 72.1846 468.99 72.332C469.067 72.3685 469.144 72.4049 469.223 72.4426C469.714 72.6756 470.204 72.9096 470.694 73.1442C471.024 73.3022 471.355 73.4598 471.685 73.6174C471.842 73.6923 471.999 73.7675 472.155 73.8428C472.372 73.9469 472.589 74.0503 472.806 74.1536C472.869 74.1843 472.933 74.2151 472.998 74.2468C473.32 74.399 473.615 74.513 473.968 74.5632C474.189 74.1261 474.408 73.6882 474.626 73.2492C474.699 73.1018 474.774 72.9552 474.85 72.809C475.465 71.5611 475.796 70.1448 476.108 68.795C476.126 68.7168 476.144 68.6386 476.163 68.558C476.436 67.3236 476.536 66.1094 476.53 64.8499C476.53 64.7805 476.53 64.7112 476.529 64.6397C476.524 63.458 476.445 62.3132 476.219 61.151C476.204 61.0675 476.188 60.984 476.172 60.898C475.808 58.998 475.165 57.2254 474.25 55.5235C474.201 55.4305 474.153 55.3375 474.104 55.2418C473.371 53.8487 472.415 52.5763 471.349 51.4212C471.173 51.2294 471.005 51.0331 470.838 50.8339C468.904 48.6254 466.14 47.0718 463.464 45.9568C463.359 45.9125 463.254 45.8683 463.146 45.8227C461.641 45.2145 460.094 44.9349 458.493 44.6437C458.493 39.4439 458.493 34.2441 458.493 28.8867C463.352 28.8867 468.211 28.8867 473.218 28.8867C473.218 30.1248 473.218 31.3628 473.218 32.6384C469.627 32.6384 466.037 32.6384 462.338 32.6384C462.338 35.5787 462.338 38.5191 462.338 41.5486C462.648 41.6105 462.957 41.6724 463.276 41.7361C468.951 43.3129 474.14 47.4056 477.053 52.5234C478.511 55.1361 479.563 57.8177 480.065 60.7758C480.086 60.8907 480.086 60.8907 480.107 61.0078C480.509 63.2261 480.448 65.5529 480.183 67.7853C480.166 67.9346 480.15 68.0841 480.135 68.2337C480.127 68.3096 480.119 68.3856 480.111 68.4638C480.104 68.5319 480.098 68.6 480.091 68.6702C480.065 68.8419 480.065 68.8419 479.971 69.0295C479.959 69.1512 479.948 69.273 479.936 69.3984C479.881 69.9213 479.746 70.4085 479.596 70.9112C479.567 71.0089 479.538 71.1067 479.508 71.2074C478.564 74.3163 477.18 77.2163 475.094 79.7217C475.031 79.7989 475.031 79.7989 474.966 79.8777C473.869 81.2239 472.643 82.5269 471.248 83.5671C471.19 83.6114 471.131 83.6556 471.071 83.7012C468.873 85.3622 466.492 86.6884 463.863 87.5318C463.664 87.5959 463.467 87.6629 463.27 87.731C457.96 89.5293 451.404 89.0257 446.37 86.5747C446.123 86.4509 445.879 86.3234 445.635 86.194C445.457 86.1002 445.278 86.009 445.099 85.9182C443.82 85.2627 442.646 84.4548 441.516 83.5671C441.428 83.498 441.339 83.4288 441.248 83.3576C440.539 82.7811 439.889 82.1474 439.242 81.5037C439.112 81.3752 439.112 81.3752 438.98 81.2441C438.184 80.4447 437.473 79.5907 436.827 78.6665C436.756 78.5649 436.756 78.5649 436.683 78.4612C436.228 77.8057 435.812 77.1333 435.42 76.439C435.385 76.3786 435.351 76.3183 435.316 76.2561C434.684 75.1397 434.19 73.9779 433.732 72.7811C433.707 72.7191 433.683 72.6571 433.658 72.5931C433.352 71.7957 433.159 70.9747 432.97 70.1432C432.947 70.0444 432.924 69.9456 432.901 69.8438C432.535 68.1741 432.368 66.5348 432.383 64.8264C432.384 64.6913 432.384 64.6913 432.385 64.5535C432.419 58.9156 434.373 53.5375 438.046 49.2395C438.106 49.1692 438.165 49.099 438.227 49.0266C439.289 47.814 440.432 46.6465 441.736 45.6951C441.891 45.5818 442.045 45.4662 442.199 45.3504C444.327 43.7664 446.698 42.6096 449.219 41.8006C449.297 41.7756 449.375 41.7505 449.455 41.7247C449.528 41.7018 449.602 41.6788 449.677 41.6552C449.775 41.6243 449.775 41.6243 449.875 41.5928C450.051 41.5486 450.051 41.5486 450.333 41.5486C450.333 38.6082 450.333 35.6678 450.333 32.6384C446.742 32.6384 443.152 32.6384 439.453 32.6384C439.453 31.4003 439.453 30.1623 439.453 28.8867Z" fill="#FDFEFE"></path><path d="M424.26 36.4834C430.976 36.4834 437.693 36.4834 444.612 36.4834C444.435 36.9266 444.256 37.1688 443.927 37.4917C443.877 37.5408 443.827 37.5899 443.775 37.6405C442.062 39.2814 439.734 40.2734 437.36 40.2564C437.258 40.2564 437.157 40.2564 437.052 40.2564C436.719 40.2563 436.386 40.2549 436.053 40.2534C435.821 40.253 435.589 40.2528 435.357 40.2526C434.749 40.2519 434.14 40.25 433.532 40.2479C432.91 40.246 432.288 40.2452 431.666 40.2442C430.448 40.2422 429.23 40.239 428.011 40.2351C428.017 43.4363 428.024 46.6376 428.033 49.8389C428.034 50.2189 428.035 50.5989 428.036 50.9789C428.036 51.0546 428.036 51.1302 428.037 51.2082C428.04 52.4245 428.042 53.6409 428.044 54.8572C428.046 56.1102 428.049 57.3632 428.053 58.6162C428.056 59.3179 428.057 60.0196 428.058 60.7213C428.05 64.3079 428.05 64.3079 428.231 67.8885C428.237 67.9566 428.242 68.0247 428.248 68.0949C428.551 71.7312 429.534 75.3063 431.106 78.5958C431.148 78.6833 431.19 78.7708 431.233 78.861C433.146 82.8112 436.103 86.3835 439.548 89.1004C439.643 89.1778 439.739 89.2552 439.837 89.3349C444.339 92.9617 449.554 95.3235 455.023 97.0727C455.117 97.1039 455.211 97.1351 455.308 97.1672C456.035 97.402 456.609 97.3882 457.345 97.1723C457.416 97.1517 457.488 97.1311 457.562 97.1099C464.259 95.1462 470.843 91.8071 475.751 86.7556C475.98 86.5259 476.209 86.2975 476.441 86.072C477.008 85.5187 477.514 84.9401 478.002 84.317C478.047 84.2606 478.092 84.2042 478.138 84.146C479.493 82.4389 480.601 80.6424 481.566 78.6896C481.6 78.622 481.633 78.5544 481.668 78.4848C482.241 77.324 482.759 76.1067 483.104 74.8573C483.177 74.5998 483.263 74.3476 483.348 74.0938C483.693 73.0292 483.918 71.946 484.116 70.8462C484.128 70.7825 484.14 70.7188 484.152 70.6532C484.542 68.5373 484.596 66.4113 484.598 64.2649C484.598 64.0021 484.599 63.7394 484.6 63.4766C484.602 62.916 484.604 62.3553 484.605 61.7946C484.606 60.984 484.609 60.1734 484.611 59.3628C484.615 58.047 484.619 56.7312 484.622 55.4154C484.625 54.1388 484.628 52.8622 484.632 51.5857C484.632 51.5067 484.632 51.4277 484.632 51.3463C484.634 50.9501 484.635 50.5538 484.636 50.1575C484.646 46.8813 484.654 43.6051 484.661 40.3288C484.538 40.3295 484.415 40.3301 484.288 40.3307C483.119 40.3365 481.95 40.3407 480.782 40.3434C480.181 40.3449 479.581 40.3469 478.98 40.3501C478.399 40.3532 477.818 40.3548 477.238 40.3555C477.017 40.3561 476.797 40.3571 476.576 40.3586C473.85 40.3768 471.29 39.9397 469.186 38.0779C469.104 38.0069 469.021 37.9359 468.937 37.8628C468.514 37.4915 468.112 37.1261 467.779 36.671C467.779 36.6091 467.779 36.5472 467.779 36.4834C474.619 36.4834 481.459 36.4834 488.507 36.4834C488.518 43.8122 488.518 43.8122 488.521 46.8919C488.521 47.5965 488.522 48.3012 488.522 49.0059C488.522 49.1384 488.522 49.1384 488.523 49.2735C488.524 50.6918 488.526 52.11 488.529 53.5283C488.531 54.9881 488.533 56.4478 488.533 57.9076C488.534 58.8055 488.535 59.7034 488.537 60.6013C488.539 61.2203 488.539 61.8393 488.539 62.4583C488.539 62.8134 488.539 63.1684 488.54 63.5235C488.547 65.0079 488.506 66.4779 488.378 67.9575C488.372 68.0245 488.367 68.0915 488.361 68.1605C488.012 72.1569 487.004 76.0795 485.318 79.7213C485.277 79.8104 485.236 79.8995 485.193 79.9913C484.323 81.8483 483.271 83.6177 482.035 85.255C481.998 85.3054 481.96 85.3558 481.921 85.4077C480.319 87.5503 478.481 89.7108 476.364 91.3536C476.141 91.5279 475.926 91.7103 475.713 91.8965C470.432 96.4721 463.774 99.3842 457.087 101.2C457.02 101.218 456.952 101.236 456.883 101.255C456.341 101.376 455.814 101.263 455.287 101.129C455.209 101.109 455.131 101.09 455.05 101.069C452.805 100.474 450.591 99.6732 448.458 98.7609C448.378 98.727 448.299 98.6932 448.217 98.6583C447.667 98.4219 447.123 98.1734 446.582 97.9168C446.491 97.8735 446.399 97.8301 446.305 97.7855C443.453 96.4214 440.75 94.7684 438.235 92.8521C438.178 92.8089 438.121 92.7658 438.063 92.7213C437.417 92.2272 436.792 91.7195 436.193 91.1686C435.998 90.989 435.798 90.8151 435.597 90.6421C435.266 90.3547 434.959 90.0477 434.652 89.7353C434.478 89.5581 434.478 89.5581 434.243 89.3818C433.97 89.1581 433.756 88.9051 433.527 88.6373C433.372 88.4602 433.211 88.2966 433.041 88.1332C432.608 87.7058 432.235 87.2311 431.857 86.7556C431.776 86.6549 431.694 86.5541 431.613 86.4534C427.83 81.7328 425.461 76.0951 424.623 70.1135C424.601 69.9547 424.601 69.9547 424.578 69.7926C424.54 69.5115 424.505 69.2301 424.471 68.9484C424.456 68.8166 424.439 68.6849 424.423 68.5532C424.238 67.0333 424.234 65.5168 424.238 63.9882C424.239 63.6179 424.238 63.2476 424.238 62.8772C424.238 62.2379 424.239 61.5986 424.24 60.9593C424.241 60.0351 424.242 59.1108 424.242 58.1865C424.243 56.6864 424.244 55.1863 424.246 53.6862C424.247 52.2303 424.249 50.7744 424.249 49.3185C424.249 49.2276 424.25 49.1367 424.25 49.0431C424.25 48.3321 424.25 47.6212 424.251 46.9102C424.252 43.4346 424.256 39.959 424.26 36.4834Z" fill="#FCFEFD"></path><path d="M454.647 49.0518C455.792 49.0518 456.938 49.0518 458.117 49.0518C458.148 52.4254 458.179 55.7991 458.211 59.275C460.595 56.8918 462.978 54.5085 465.433 52.0531C465.829 52.3925 466.2 52.7144 466.564 53.0811C466.647 53.1639 466.729 53.2468 466.814 53.3321C466.94 53.4592 466.94 53.4592 467.069 53.5889C467.155 53.6758 467.242 53.7628 467.331 53.8523C467.543 54.0652 467.754 54.2783 467.966 54.4917C467.572 54.9612 467.162 55.4022 466.728 55.834C466.662 55.9001 466.596 55.9662 466.527 56.0343C466.316 56.2461 466.103 56.4576 465.891 56.669C465.76 56.8006 465.628 56.9321 465.496 57.0637C465.01 57.549 464.524 58.0339 464.038 58.5188C462.951 59.6041 461.864 60.6893 460.744 61.8074C464.117 61.8383 467.491 61.8693 470.967 61.9012C470.967 63.0464 470.967 64.1916 470.967 65.3715C469.6 65.3842 468.232 65.3946 466.865 65.4006C466.23 65.4035 465.595 65.4075 464.96 65.4139C464.347 65.4202 463.734 65.4234 463.121 65.4249C462.888 65.4259 462.654 65.4279 462.421 65.431C462.093 65.4351 461.765 65.4356 461.437 65.4354C461.341 65.4374 461.245 65.4394 461.146 65.4415C460.282 65.4341 459.78 65.069 459.178 64.4797C459.07 64.3674 458.963 64.2543 458.856 64.1405C458.244 63.4865 457.633 63.0119 456.71 62.8981C455.533 62.873 454.746 63.2473 453.912 64.0428C453.714 64.236 453.522 64.4333 453.332 64.6332C452.836 65.1533 452.367 65.4762 451.629 65.5104C451.444 65.5115 451.259 65.5105 451.074 65.5079C450.972 65.5079 450.871 65.508 450.766 65.508C450.432 65.5078 450.098 65.5048 449.764 65.5019C449.532 65.5012 449.3 65.5007 449.067 65.5003C448.457 65.4989 447.847 65.4952 447.237 65.491C446.614 65.4872 445.991 65.4855 445.368 65.4836C444.147 65.4796 442.925 65.473 441.704 65.4653C441.704 64.2891 441.704 63.113 441.704 61.9012C445.078 61.8702 448.451 61.8393 451.927 61.8074C449.575 59.4551 447.223 57.1028 444.799 54.6792C444.987 54.3035 445.203 54.0633 445.497 53.775C445.547 53.7256 445.597 53.6762 445.648 53.6252C445.806 53.4681 445.965 53.3116 446.124 53.1551C446.232 53.0484 446.339 52.9417 446.447 52.8349C446.71 52.5738 446.974 52.3133 447.238 52.0531C447.703 52.4436 448.142 52.8498 448.571 53.2794C448.636 53.3432 448.7 53.4071 448.766 53.4728C448.976 53.6818 449.185 53.891 449.395 54.1004C449.541 54.2463 449.687 54.3923 449.833 54.5382C450.139 54.843 450.444 55.1479 450.749 55.453C451.141 55.8448 451.533 56.2359 451.926 56.6269C452.227 56.9275 452.528 57.2285 452.83 57.5297C452.974 57.6742 453.119 57.8185 453.264 57.9627C453.465 58.1634 453.666 58.3647 453.867 58.5662C453.928 58.626 453.988 58.6859 454.05 58.7475C454.46 59.1598 454.46 59.1598 454.46 59.3688C454.522 59.3688 454.583 59.3688 454.647 59.3688C454.647 55.9642 454.647 52.5596 454.647 49.0518Z" fill="#FDFEFE"></path><path d="M462.808 73.0625C462.993 73.1418 463.175 73.2269 463.356 73.316C463.464 73.3687 463.571 73.4213 463.682 73.4756C463.739 73.5037 463.796 73.5319 463.855 73.5609C464.161 73.7122 464.468 73.8615 464.775 74.0111C464.838 74.0418 464.901 74.0725 464.966 74.1041C465.583 74.4042 466.206 74.6926 466.829 74.9794C467.795 75.425 468.756 75.8813 469.713 76.3452C469.774 76.3748 469.835 76.4044 469.898 76.4349C470.601 76.7755 471.302 77.1193 471.999 77.4707C471.801 77.8563 471.546 78.1218 471.238 78.4193C471.061 78.5961 470.9 78.7804 470.739 78.9714C470.407 79.355 470.043 79.6777 469.654 80.0031C469.536 80.107 469.536 80.107 469.416 80.213C467.462 81.9028 465.219 83.0548 462.808 83.9423C462.736 83.9688 462.664 83.9953 462.59 84.0226C461.505 84.4138 460.38 84.607 459.244 84.7864C459.142 84.8034 459.039 84.8204 458.934 84.8379C458.152 84.9608 457.391 85.0037 456.6 84.9975C456.481 84.9968 456.362 84.9961 456.24 84.9953C453.472 84.9638 449.295 84.4436 447.164 82.4742C447.127 82.4325 447.089 82.3908 447.051 82.3479C447.2 82.256 447.349 82.1642 447.498 82.0724C447.596 82.0124 447.693 81.9524 447.794 81.8906C448.013 81.7559 448.231 81.6212 448.45 81.4866C449.006 81.1444 449.562 80.8021 450.118 80.4596C451.357 79.6964 452.598 78.9373 453.841 78.1817C454.806 77.5949 455.769 77.005 456.729 76.4097C457.697 75.8092 458.67 75.2169 459.643 74.6254C460.04 74.3843 460.436 74.1427 460.832 73.9008C460.898 73.8606 460.964 73.8203 461.032 73.7789C461.094 73.7407 461.157 73.7024 461.222 73.663C461.282 73.6265 461.342 73.5899 461.405 73.5523C461.534 73.4718 461.66 73.3878 461.785 73.3014C461.85 73.2575 461.915 73.2136 461.981 73.1684C462.039 73.128 462.096 73.0875 462.155 73.0459C462.411 72.9383 462.544 72.9821 462.808 73.0625Z" fill="#44CF9C"></path><path d="M449.831 73.2064C450.26 73.3942 450.684 73.5913 451.107 73.7952C451.19 73.8352 451.274 73.8751 451.36 73.9163C451.927 74.1884 452.491 74.4677 453.053 74.7507C452.744 75.0056 452.432 75.2296 452.09 75.438C451.994 75.4968 451.898 75.5556 451.799 75.6161C451.697 75.6787 451.594 75.7414 451.488 75.8059C451.379 75.8724 451.27 75.9389 451.161 76.0055C450.935 76.1438 450.709 76.2819 450.483 76.42C450.059 76.6793 449.635 76.9404 449.212 77.2015C448.237 77.8024 447.261 78.4005 446.282 78.9943C445.906 79.2226 445.53 79.4514 445.157 79.6854C445.072 79.7387 445.072 79.7387 444.985 79.7931C444.843 79.8828 444.7 79.9731 444.558 80.0635C444.174 80.2778 444.174 80.2778 443.955 80.2844C443.746 80.1386 443.746 80.1386 443.521 79.921C443.439 79.8435 443.358 79.766 443.274 79.6861C443.147 79.5644 443.147 79.5644 443.017 79.4403C442.85 79.2893 442.682 79.1388 442.513 78.9889C442.235 78.7403 441.966 78.4868 441.704 78.221C441.827 77.852 441.971 77.8092 442.302 77.6128C442.38 77.5661 442.38 77.5661 442.46 77.5184C442.573 77.451 442.685 77.3841 442.798 77.3174C443.039 77.1758 443.278 77.0324 443.517 76.8891C443.64 76.8156 443.763 76.7421 443.886 76.6687C444.461 76.3247 445.029 75.9698 445.596 75.6124C446.366 75.1285 447.14 74.653 447.923 74.1904C448.247 73.9984 448.567 73.8057 448.876 73.5908C448.966 73.5286 449.056 73.4665 449.149 73.4025C449.221 73.3495 449.293 73.2965 449.368 73.242C449.582 73.1563 449.582 73.1563 449.831 73.2064Z" fill="#46D19D"></path><g clip-path="url(#clip1_2001_704)"><rect x="362" y="157" width="193" height="193" rx="96.5" fill="#F1F1F1"></rect><path d="M432.645 262.5H394.564V256.356C394.564 248.804 397.828 244.9 406.852 241.892L417.861 238.308C421.701 236.964 423.108 235.684 423.108 232.868C423.108 229.604 421.316 227.748 414.277 227.748C406.404 227.748 404.036 230.116 404.036 234.852V235.684H394.628V234.852C394.628 226.532 400.324 218.98 414.597 218.98C427.525 218.98 432.772 224.868 432.772 232.996C432.772 240.612 427.781 244.388 420.164 246.5L410.82 249.06C406.66 250.34 404.676 251.556 404.676 254.948L415.876 253.86H432.645V262.5ZM470.76 262.5H461.16V254.308H433.96V247.78L459.624 219.62H470.76V245.668H477.288V254.308H470.76V262.5ZM447.336 245.668H461.16V230.692H460.456L447.336 244.964V245.668ZM499.948 263.14C486.124 263.14 478.508 254.436 478.508 241.06C478.508 227.748 486.124 218.98 499.948 218.98C513.708 218.98 521.388 227.748 521.388 241.06C521.388 254.436 513.708 263.14 499.948 263.14ZM499.948 253.796C508.076 253.796 511.084 250.276 511.084 241.06C511.084 231.844 508.076 228.324 499.948 228.324C491.756 228.324 488.812 231.844 488.812 241.06C488.812 250.276 491.756 253.796 499.948 253.796Z" fill="#007F73"></path><path d="M419.795 298.74C415.931 298.74 413.363 296.172 413.363 292.572C413.363 288.972 415.931 286.404 419.795 286.404C423.683 286.404 426.251 288.972 426.251 292.572C426.251 296.172 423.683 298.74 419.795 298.74ZM419.795 297.204C423.059 297.204 424.571 295.452 424.571 292.572C424.571 289.716 423.059 287.94 419.795 287.94C416.531 287.94 415.043 289.716 415.043 292.572C415.043 295.452 416.531 297.204 419.795 297.204ZM427.798 287.868H427.294V286.836H427.774C428.086 286.836 428.254 286.74 428.254 286.308V285.756H427.318V282.42H429.43V286.284C429.43 287.364 428.806 287.868 427.798 287.868ZM436.185 298.74C432.417 298.74 430.329 296.172 430.329 292.572C430.329 288.972 432.441 286.404 436.137 286.404C438.945 286.404 440.721 287.844 441.249 289.98H441.441V286.644H443.001V302.58H441.297V295.02H441.249C440.697 297.3 438.801 298.74 436.185 298.74ZM432.057 292.572C432.057 296.004 433.881 297.18 436.665 297.18C439.449 297.18 441.297 295.596 441.297 292.788V292.572C441.297 289.644 439.545 287.988 436.617 287.988C433.905 287.988 432.057 289.14 432.057 292.572ZM450.351 298.74C446.967 298.74 445.311 296.388 445.311 293.58V286.644H447.015V293.316C447.015 295.788 448.215 297.204 450.951 297.204C453.855 297.204 455.367 295.452 455.367 292.404V286.644H457.071V298.5H455.535V294.804H455.415C455.007 296.82 453.303 298.74 450.351 298.74ZM466.01 298.5H463.922L458.258 286.644H460.106L464.906 296.82H465.05L469.826 286.644H471.674L466.01 298.5ZM478.54 298.74C474.748 298.74 472.276 296.172 472.276 292.572C472.276 288.972 474.748 286.404 478.54 286.404C481.852 286.404 484.444 288.372 484.444 291.228V291.42H482.764V291.276C482.764 289.164 481.228 287.964 478.516 287.964C475.348 287.964 473.98 289.668 473.98 292.572C473.98 295.476 475.348 297.18 478.516 297.18C481.228 297.18 482.764 295.98 482.764 293.868V293.724H484.444V293.916C484.444 296.772 481.852 298.74 478.54 298.74ZM487.952 298.5H486.248V282.42H487.952V290.268H488.072C488.456 288.276 489.992 286.404 493.016 286.404C496.328 286.404 497.984 288.612 497.984 291.612V298.5H496.28V291.828C496.28 289.116 495.008 287.964 492.344 287.964C489.176 287.964 487.952 289.98 487.952 292.932V298.5ZM502.027 285.132H500.323V282.42H502.027V285.132ZM502.027 298.5H500.323V286.644H502.027V298.5Z" fill="#007F73"></path></g><rect x="362.5" y="157.5" width="192" height="192" rx="96" stroke="url(#paint5_linear_2001_704)"></rect><path d="M2 387V427H230V387" stroke="#007F73" stroke-width="3"></path><path d="M342 387V427H570V387" stroke="#007F73" stroke-width="3"></path><path d="M69.5 116C78.0494 124.549 94.8381 135.115 114.721 135.214M159 116C143.898 130.281 128.56 135.283 114.721 135.214M114.721 135.214L114.5 154" stroke="#4AD7A0" stroke-width="3"></path><path d="M412 116C420.549 124.549 437.338 135.115 457.221 135.214M501.5 116C486.398 130.281 471.06 135.283 457.221 135.214M457.221 135.214L457 154" stroke="#4AD7A0" stroke-width="3"></path><defs><linearGradient id="paint0_linear_2001_704" x1="17" y1="165" x2="229.408" y2="190.912" gradientUnits="userSpaceOnUse"><stop stop-color="#D3D3D3"></stop><stop offset="1" stop-color="#FAFAFA"></stop></linearGradient><linearGradient id="paint1_linear_2001_704" x1="57" y1="11.8083" x2="184.665" y2="27.3825" gradientUnits="userSpaceOnUse"><stop stop-color="#D3D3D3"></stop><stop offset="1" stop-color="#FAFAFA"></stop></linearGradient><linearGradient id="paint2_linear_2001_704" x1="79.7771" y1="25.041" x2="159.168" y2="95.794" gradientUnits="userSpaceOnUse"><stop stop-color="#007E72"></stop><stop offset="0.500371" stop-color="#4DE4A7"></stop><stop offset="1" stop-color="#95FCD2"></stop></linearGradient><linearGradient id="paint3_linear_2001_704" x1="398" y1="11.8083" x2="525.665" y2="27.3825" gradientUnits="userSpaceOnUse"><stop stop-color="#D3D3D3"></stop><stop offset="1" stop-color="#FAFAFA"></stop></linearGradient><linearGradient id="paint4_linear_2001_704" x1="420.777" y1="25.041" x2="500.168" y2="95.794" gradientUnits="userSpaceOnUse"><stop stop-color="#007E72"></stop><stop offset="0.500371" stop-color="#4DE4A7"></stop><stop offset="1" stop-color="#95FCD2"></stop></linearGradient><linearGradient id="paint5_linear_2001_704" x1="362" y1="165" x2="574.408" y2="190.912" gradientUnits="userSpaceOnUse"><stop stop-color="#D3D3D3"></stop><stop offset="1" stop-color="#FAFAFA"></stop></linearGradient><clipPath id="clip0_2001_704"><rect x="17" y="157" width="193" height="193" rx="96.5" fill="white"></rect></clipPath><clipPath id="clip1_2001_704"><rect x="362" y="157" width="193" height="193" rx="96.5" fill="white"></rect></clipPath></defs></svg>