<svg width="[object Object]" height="471" viewBox="0 0 574 471" fill="none" xmlns="http://www.w3.org/2000/svg"><path d="M52 64C52 47.0261 58.7428 30.7475 70.7452 18.7452C82.7475 6.74284 99.0261 5.50434e-07 116 2.03434e-06C132.974 3.51824e-06 149.253 6.74284 161.255 18.7452C173.257 30.7475 180 47.0261 180 64L116 64L52 64Z" fill="#30CEF0"></path><path d="M395 64C395 47.0261 401.743 30.7475 413.745 18.7452C425.747 6.74284 442.026 5.50434e-07 459 2.03434e-06C475.974 3.51824e-06 492.253 6.74284 504.255 18.7452C516.257 30.7475 523 47.0261 523 64L459 64L395 64Z" fill="#49D7A0"></path><rect y="249" width="287" height="115" fill="#19AEE5"></rect><rect x="287" y="249" width="287" height="115" fill="#32B890"></rect><rect x="17.5" y="157.5" width="540" height="192" rx="15.5" fill="#F1F1F1"></rect><rect x="17.5" y="157.5" width="540" height="192" rx="15.5" stroke="url(#paint0_linear_2001_703)"></rect><path d="M186.307 243H176.707V212.024H165.699V205.432H167.491C172.227 205.432 175.427 204.344 177.539 200.12H186.307V243ZM210.631 243.64C196.807 243.64 189.191 234.936 189.191 221.56C189.191 208.248 196.807 199.48 210.631 199.48C224.391 199.48 232.071 208.248 232.071 221.56C232.071 234.936 224.391 243.64 210.631 243.64ZM210.631 234.296C218.759 234.296 221.767 230.776 221.767 221.56C221.767 212.344 218.759 208.824 210.631 208.824C202.439 208.824 199.495 212.344 199.495 221.56C199.495 230.776 202.439 234.296 210.631 234.296ZM280.458 243H242.378V236.856C242.378 229.304 245.642 225.4 254.666 222.392L265.674 218.808C269.514 217.464 270.922 216.184 270.922 213.368C270.922 210.104 269.13 208.248 262.09 208.248C254.218 208.248 251.85 210.616 251.85 215.352V216.184H242.442V215.352C242.442 207.032 248.138 199.48 262.41 199.48C275.338 199.48 280.586 205.368 280.586 213.496C280.586 221.112 275.594 224.888 267.978 227L258.634 229.56C254.474 230.84 252.49 232.056 252.49 235.448L263.69 234.36H280.458V243ZM303.854 243.64C290.03 243.64 282.414 234.936 282.414 221.56C282.414 208.248 290.03 199.48 303.854 199.48C317.614 199.48 325.294 208.248 325.294 221.56C325.294 234.936 317.614 243.64 303.854 243.64ZM303.854 234.296C311.982 234.296 314.99 230.776 314.99 221.56C314.99 212.344 311.982 208.824 303.854 208.824C295.662 208.824 292.718 212.344 292.718 221.56C292.718 230.776 295.662 234.296 303.854 234.296ZM348.574 243.64C334.75 243.64 327.134 234.936 327.134 221.56C327.134 208.248 334.75 199.48 348.574 199.48C362.334 199.48 370.014 208.248 370.014 221.56C370.014 234.936 362.334 243.64 348.574 243.64ZM348.574 234.296C356.702 234.296 359.71 230.776 359.71 221.56C359.71 212.344 356.702 208.824 348.574 208.824C340.382 208.824 337.438 212.344 337.438 221.56C337.438 230.776 340.382 234.296 348.574 234.296ZM390.734 235.832H382.478V225.528H372.302V217.592H382.478V207.288H390.734V217.592H400.91V225.528H390.734V235.832Z" fill="#007F73"></path><path d="M245.795 279.24C241.931 279.24 239.363 276.672 239.363 273.072C239.363 269.472 241.931 266.904 245.795 266.904C249.683 266.904 252.251 269.472 252.251 273.072C252.251 276.672 249.683 279.24 245.795 279.24ZM245.795 277.704C249.059 277.704 250.571 275.952 250.571 273.072C250.571 270.216 249.059 268.44 245.795 268.44C242.531 268.44 241.043 270.216 241.043 273.072C241.043 275.952 242.531 277.704 245.795 277.704ZM253.798 268.368H253.294V267.336H253.774C254.086 267.336 254.254 267.24 254.254 266.808V266.256H253.318V262.92H255.43V266.784C255.43 267.864 254.806 268.368 253.798 268.368ZM262.185 279.24C258.417 279.24 256.329 276.672 256.329 273.072C256.329 269.472 258.441 266.904 262.137 266.904C264.945 266.904 266.721 268.344 267.249 270.48H267.441V267.144H269.001V283.08H267.297V275.52H267.249C266.697 277.8 264.801 279.24 262.185 279.24ZM258.057 273.072C258.057 276.504 259.881 277.68 262.665 277.68C265.449 277.68 267.297 276.096 267.297 273.288V273.072C267.297 270.144 265.545 268.488 262.617 268.488C259.905 268.488 258.057 269.64 258.057 273.072ZM276.351 279.24C272.967 279.24 271.311 276.888 271.311 274.08V267.144H273.015V273.816C273.015 276.288 274.215 277.704 276.951 277.704C279.855 277.704 281.367 275.952 281.367 272.904V267.144H283.071V279H281.535V275.304H281.415C281.007 277.32 279.303 279.24 276.351 279.24ZM292.01 279H289.922L284.258 267.144H286.106L290.906 277.32H291.05L295.826 267.144H297.674L292.01 279ZM304.54 279.24C300.748 279.24 298.276 276.672 298.276 273.072C298.276 269.472 300.748 266.904 304.54 266.904C307.852 266.904 310.444 268.872 310.444 271.728V271.92H308.764V271.776C308.764 269.664 307.228 268.464 304.516 268.464C301.348 268.464 299.98 270.168 299.98 273.072C299.98 275.976 301.348 277.68 304.516 277.68C307.228 277.68 308.764 276.48 308.764 274.368V274.224H310.444V274.416C310.444 277.272 307.852 279.24 304.54 279.24ZM313.952 279H312.248V262.92H313.952V270.768H314.072C314.456 268.776 315.992 266.904 319.016 266.904C322.328 266.904 323.984 269.112 323.984 272.112V279H322.28V272.328C322.28 269.616 321.008 268.464 318.344 268.464C315.176 268.464 313.952 270.48 313.952 273.432V279ZM328.026 265.632H326.322V262.92H328.026V265.632ZM328.026 279H326.322V267.144H328.026V279Z" fill="#007F73"></path><path d="M223.008 317H210.264V315.824C210.264 312.728 211.392 311.216 214.632 310.04L218.232 308.768C220.56 307.904 221.328 307.112 221.328 305.408C221.328 303.296 219.864 302.288 216.816 302.288C213.336 302.288 211.896 303.632 211.896 306.032V306.32H210.192V306.104C210.192 303.248 212.16 300.68 216.864 300.68C221.184 300.68 223.056 302.816 223.056 305.408C223.056 307.88 221.52 309.272 218.688 310.232L215.4 311.336C212.76 312.272 212.016 313.328 212.016 315.584L215.616 315.44H223.008V317ZM237.223 317H224.479V315.824C224.479 312.728 225.607 311.216 228.847 310.04L232.447 308.768C234.775 307.904 235.543 307.112 235.543 305.408C235.543 303.296 234.079 302.288 231.031 302.288C227.551 302.288 226.111 303.632 226.111 306.032V306.32H224.407V306.104C224.407 303.248 226.375 300.68 231.079 300.68C235.399 300.68 237.271 302.816 237.271 305.408C237.271 307.88 235.735 309.272 232.903 310.232L229.615 311.336C226.975 312.272 226.231 313.328 226.231 315.584L229.831 315.44H237.223V317ZM245.943 317.24C241.359 317.24 238.479 314.144 238.479 308.96C238.479 303.8 241.359 300.68 245.943 300.68C250.503 300.68 253.383 303.8 253.383 308.96C253.383 314.144 250.503 317.24 245.943 317.24ZM245.943 315.608C249.663 315.608 251.583 313.448 251.583 308.96C251.583 304.472 249.663 302.312 245.943 302.312C242.199 302.312 240.279 304.472 240.279 308.96C240.279 313.448 242.199 315.608 245.943 315.608ZM260.088 313.64H258.552V309.68H254.64V308.24H258.552V304.28H260.088V308.24H264V309.68H260.088V313.64ZM274.74 317.24C271.356 317.24 269.7 314.888 269.7 312.08V305.144H271.404V311.816C271.404 314.288 272.604 315.704 275.34 315.704C278.244 315.704 279.756 313.952 279.756 310.904V305.144H281.46V317H279.924V313.304H279.804C279.396 315.32 277.692 317.24 274.74 317.24ZM289.054 317.24C285.406 317.24 283.294 315.776 283.294 313.04V312.992H284.998V313.136C284.998 315.128 286.174 315.824 289.078 315.824C291.742 315.824 292.654 315.2 292.654 313.832C292.654 312.584 291.91 312.176 289.942 311.864L286.774 311.408C284.614 311.12 283.246 310.28 283.246 308.312C283.246 306.224 285.238 304.904 288.502 304.904C291.91 304.904 294.118 306.344 294.118 309.128V309.176H292.414V309.056C292.414 307.28 291.478 306.32 288.454 306.32C285.958 306.32 284.926 306.92 284.926 308.336C284.926 309.56 285.55 309.992 287.518 310.28L290.422 310.688C292.966 311.048 294.334 311.912 294.334 313.832C294.334 316.064 292.126 317.24 289.054 317.24ZM303.365 317H300.797C298.445 317 296.933 316.016 296.933 313.232V306.608H294.821V305.144H296.933V302.312H298.661V305.144H303.365V306.608H298.661V313.328C298.661 314.984 299.477 315.44 301.205 315.44H303.365V317ZM310.561 317.24C306.697 317.24 304.129 314.672 304.129 311.072C304.129 307.472 306.697 304.904 310.561 304.904C314.449 304.904 317.017 307.472 317.017 311.072C317.017 314.672 314.449 317.24 310.561 317.24ZM310.561 315.704C313.825 315.704 315.337 313.952 315.337 311.072C315.337 308.216 313.825 306.44 310.561 306.44C307.297 306.44 305.809 308.216 305.809 311.072C305.809 313.952 307.297 315.704 310.561 315.704ZM330.013 317H317.989V315.512L324.853 308.96L327.349 306.752V306.632L324.853 306.68H318.349V305.144H329.653V306.656L322.333 313.568L320.197 315.416V315.536L322.333 315.488H330.013V317ZM333.294 317H331.59V300.92H333.294V317ZM338.969 317.24C336.641 317.24 335.057 316.136 335.057 314.216C335.057 312.272 336.665 311.432 338.873 311.192L344.513 310.568V309.656C344.513 307.352 343.505 306.44 340.913 306.44C338.369 306.44 337.025 307.352 337.025 309.44V309.536H335.321V309.44C335.321 306.944 337.385 304.904 341.033 304.904C344.633 304.904 346.169 306.968 346.169 309.584V317H344.633V313.808H344.513C343.817 315.992 341.729 317.24 338.969 317.24ZM336.761 314.096C336.761 315.296 337.553 315.92 339.353 315.92C342.233 315.92 344.513 314.648 344.513 311.792V311.696L339.401 312.272C337.625 312.44 336.761 312.872 336.761 314.096ZM350.194 317H348.49V305.144H350.026V308.384H350.146C350.506 306.488 351.85 304.904 354.322 304.904C357.058 304.904 358.258 306.92 358.258 309.128V310.304H356.554V309.392C356.554 307.376 355.714 306.392 353.65 306.392C351.25 306.392 350.194 307.904 350.194 310.568V317Z" fill="#007F73"></path><path d="M236.899 465H224.557V463.438C224.557 460.71 225.635 459.346 228.671 458.312L232.191 457.102C233.951 456.464 234.567 455.87 234.567 454.572C234.567 453.01 233.555 452.218 230.915 452.218C227.967 452.218 226.867 453.252 226.867 455.188V455.452H224.535V455.232C224.535 452.504 226.405 450.04 231.003 450.04C235.183 450.04 236.943 452.02 236.943 454.616C236.943 457.036 235.381 458.312 232.785 459.104L229.683 460.05C227.703 460.732 227.021 461.436 227.021 463.108L230.585 462.866H236.899V465ZM244.906 465.22C240.462 465.22 237.822 462.316 237.822 457.63C237.822 452.966 240.462 450.04 244.906 450.04C249.35 450.04 251.99 452.966 251.99 457.63C251.99 462.316 249.35 465.22 244.906 465.22ZM244.906 462.932C248.052 462.932 249.46 461.304 249.46 457.63C249.46 453.956 248.052 452.328 244.906 452.328C241.76 452.328 240.33 453.956 240.33 457.63C240.33 461.304 241.76 462.932 244.906 462.932ZM258.417 465H256.041V453.78H252.433V452.086H253.137C254.765 452.086 255.689 451.668 256.327 450.26H258.417V465ZM266.821 465.22C262.377 465.22 259.737 462.316 259.737 457.63C259.737 452.966 262.377 450.04 266.821 450.04C271.265 450.04 273.905 452.966 273.905 457.63C273.905 462.316 271.265 465.22 266.821 465.22ZM266.821 462.932C269.967 462.932 271.375 461.304 271.375 457.63C271.375 453.956 269.967 452.328 266.821 452.328C263.675 452.328 262.245 453.956 262.245 457.63C262.245 461.304 263.675 462.932 266.821 462.932ZM285.103 459.544H278.107V457.52H285.103V459.544ZM301.731 465H289.389V463.438C289.389 460.71 290.467 459.346 293.503 458.312L297.023 457.102C298.783 456.464 299.399 455.87 299.399 454.572C299.399 453.01 298.387 452.218 295.747 452.218C292.799 452.218 291.699 453.252 291.699 455.188V455.452H289.367V455.232C289.367 452.504 291.237 450.04 295.835 450.04C300.015 450.04 301.775 452.02 301.775 454.616C301.775 457.036 300.213 458.312 297.617 459.104L294.515 460.05C292.535 460.732 291.853 461.436 291.853 463.108L295.417 462.866H301.731V465ZM309.738 465.22C305.294 465.22 302.654 462.316 302.654 457.63C302.654 452.966 305.294 450.04 309.738 450.04C314.182 450.04 316.822 452.966 316.822 457.63C316.822 462.316 314.182 465.22 309.738 465.22ZM309.738 462.932C312.884 462.932 314.292 461.304 314.292 457.63C314.292 453.956 312.884 452.328 309.738 452.328C306.592 452.328 305.162 453.956 305.162 457.63C305.162 461.304 306.592 462.932 309.738 462.932ZM330.135 465H317.793V463.438C317.793 460.71 318.871 459.346 321.907 458.312L325.427 457.102C327.187 456.464 327.803 455.87 327.803 454.572C327.803 453.01 326.791 452.218 324.151 452.218C321.203 452.218 320.103 453.252 320.103 455.188V455.452H317.771V455.232C317.771 452.504 319.641 450.04 324.239 450.04C328.419 450.04 330.179 452.02 330.179 454.616C330.179 457.036 328.617 458.312 326.021 459.104L322.919 460.05C320.939 460.732 320.257 461.436 320.257 463.108L323.821 462.866H330.135V465ZM343.488 465H331.146V463.438C331.146 460.71 332.224 459.346 335.26 458.312L338.78 457.102C340.54 456.464 341.156 455.87 341.156 454.572C341.156 453.01 340.144 452.218 337.504 452.218C334.556 452.218 333.456 453.252 333.456 455.188V455.452H331.124V455.232C331.124 452.504 332.994 450.04 337.592 450.04C341.772 450.04 343.532 452.02 343.532 454.616C343.532 457.036 341.97 458.312 339.374 459.104L336.272 460.05C334.292 460.732 333.61 461.436 333.61 463.108L337.174 462.866H343.488V465Z" fill="#007F73"></path><rect x="57.5" y="7.5" width="115" height="115" rx="57.5" fill="#F1F1F1"></rect><rect x="57.5" y="7.5" width="115" height="115" rx="57.5" stroke="url(#paint1_linear_2001_703)"></rect><path d="M94.8178 25C108.338 25 121.858 25 135.788 25C135.788 27.651 135.788 30.302 135.788 33.0334C140.798 33.0334 145.809 33.0334 150.971 33.0334C150.981 41.3096 150.981 41.3096 150.983 44.7793C150.983 45.5733 150.984 46.3673 150.984 47.1613C150.984 47.3106 150.984 47.3106 150.984 47.4629C150.985 49.0638 150.987 50.6648 150.99 52.2658C150.992 53.912 150.993 55.5582 150.994 57.2044C150.994 58.218 150.995 59.2317 150.997 60.2454C150.998 60.9429 150.999 61.6405 150.998 62.338C150.998 62.7389 150.998 63.1398 151 63.5407C151.012 67.6193 150.65 71.7686 149.418 75.6788C149.367 75.8413 149.319 76.0043 149.27 76.1677C148.756 77.8781 148.11 79.5348 147.356 81.1531C147.304 81.2644 147.304 81.2644 147.251 81.3779C145.815 84.4258 143.873 87.3173 141.588 89.7965C141.44 89.9579 141.297 90.1215 141.155 90.2868C140.874 90.6077 140.581 90.913 140.28 91.2146C140.228 91.2672 140.176 91.3199 140.122 91.3741C140.011 91.4846 139.901 91.595 139.791 91.7052C139.625 91.8715 139.459 92.0385 139.294 92.2054C138.77 92.7314 138.247 93.2389 137.662 93.6968C137.461 93.8572 137.272 94.0275 137.083 94.2023C136.667 94.5799 136.228 94.9225 135.778 95.2588C135.675 95.336 135.573 95.4136 135.47 95.4915C132.846 97.4878 130.018 99.2263 127.052 100.666C126.848 100.766 126.645 100.867 126.441 100.969C123.71 102.317 120.854 103.392 117.934 104.254C117.878 104.271 117.822 104.287 117.764 104.304C115.438 104.99 115.438 104.99 114.501 104.745C114.409 104.721 114.317 104.697 114.222 104.672C114.123 104.645 114.024 104.618 113.922 104.59C113.845 104.57 113.845 104.57 113.766 104.548C111.809 104.02 109.87 103.366 107.993 102.602C107.917 102.572 107.842 102.541 107.764 102.51C103.011 100.577 98.4499 98.0936 94.4677 94.8373C94.3469 94.7386 94.2256 94.6405 94.1042 94.5425C92.5187 93.2574 92.5187 93.2574 91.8894 92.6047C91.7566 92.4716 91.6173 92.3508 91.4739 92.2291C90.8238 91.6677 90.2106 91.0471 89.6548 90.3924C89.4824 90.192 89.3032 89.9985 89.1242 89.804C88.767 89.4114 88.4247 89.0104 88.0944 88.5949C88.0206 88.5025 87.9463 88.4104 87.8717 88.3185C86.6891 86.862 85.6143 85.2803 84.6958 83.6435C84.6383 83.5416 84.6383 83.5416 84.5796 83.4378C83.5419 81.5899 82.6887 79.6898 81.9644 77.6988C81.9362 77.6219 81.908 77.545 81.8789 77.4657C81.5002 76.4233 81.2053 75.3643 80.9352 74.2896C80.9124 74.1995 80.9124 74.1995 80.8891 74.1075C80.6993 73.3518 80.5391 72.5955 80.4104 71.827C80.3733 71.6057 80.3349 71.3851 80.2946 71.1644C79.9313 69.1727 79.7819 67.1385 79.7858 65.1158C79.7857 64.9765 79.7857 64.8373 79.7856 64.6981C79.7854 64.3189 79.7857 63.9397 79.7861 63.5605C79.7865 63.1503 79.7863 62.7401 79.7863 62.3299C79.7862 61.6203 79.7865 60.9107 79.7869 60.2011C79.7876 59.1752 79.7878 58.1493 79.7879 57.1234C79.7881 55.4586 79.7886 53.7939 79.7894 52.1292C79.7901 50.5126 79.7907 48.8961 79.791 47.2795C79.7911 47.1787 79.7911 47.078 79.7911 46.9742C79.7913 46.1861 79.7914 45.398 79.7916 44.6099C79.7923 40.7511 79.7939 36.8922 79.7954 33.0334C84.7528 33.0334 89.7102 33.0334 94.8178 33.0334C94.8178 30.3823 94.8178 27.7313 94.8178 25Z" fill="url(#paint2_linear_2001_703)"></path><path d="M98.4332 28.856C103.258 28.856 108.083 28.856 113.054 28.856C113.054 34.0519 113.054 39.2479 113.054 44.6013C111.98 44.8002 111.98 44.8002 110.885 45.003C106.349 46.1245 102.087 48.6405 99.3169 52.474C99.2483 52.5662 99.1797 52.6584 99.111 52.7505C96.9739 55.6467 95.7189 59.0311 95.3002 62.596C95.2895 62.6833 95.2789 62.7706 95.2679 62.8606C95.0685 64.884 95.202 66.972 95.7019 68.9424C95.7238 69.0322 95.7458 69.1219 95.7684 69.2145C95.8451 69.4328 95.8451 69.4328 96.027 69.5417C97.4419 70.0202 98.9055 69.7974 100.231 69.1884C102.01 68.3712 104.236 68.0877 106.118 68.7799C106.616 68.9783 107.104 69.1996 107.591 69.4244C108.601 69.8869 109.977 69.9625 111.033 69.5935C111.283 69.4927 111.526 69.3822 111.769 69.2637C113.544 68.4215 115.706 68.0968 117.612 68.7166C118.249 68.9454 118.864 69.2266 119.481 69.5047C120.052 69.7577 120.613 69.7625 121.228 69.7658C121.303 69.7675 121.379 69.7691 121.456 69.7708C122.225 69.7751 122.843 69.5581 123.536 69.2427C125.638 68.2863 127.771 68.1495 129.957 68.964C130.19 69.0586 130.418 69.1593 130.647 69.2637C130.816 69.3382 130.985 69.4119 131.154 69.4846C131.228 69.5174 131.303 69.5501 131.379 69.5838C131.883 69.7611 132.399 69.7604 132.926 69.7608C132.991 69.7618 133.055 69.7627 133.121 69.7638C133.773 69.7653 134.364 69.6093 134.985 69.4244C134.994 69.3648 135.003 69.3053 135.012 69.2439C135.099 68.6642 135.195 68.0871 135.302 67.5107C135.42 66.8621 135.48 66.2209 135.486 65.5618C135.487 65.4601 135.487 65.4601 135.489 65.3564C135.541 59.671 133.584 54.6208 129.605 50.5291C129.123 50.0429 128.617 49.6003 128.076 49.1803C127.996 49.1161 127.915 49.0519 127.832 48.9858C126.749 48.1314 125.603 47.4086 124.381 46.7703C124.323 46.7398 124.264 46.7093 124.204 46.6778C122.098 45.5918 119.878 44.9889 117.553 44.6013C117.553 39.4054 117.553 34.2094 117.553 28.856C122.377 28.856 127.202 28.856 132.173 28.856C132.173 30.0754 132.173 31.2949 132.173 32.5513C128.568 32.5513 124.963 32.5513 121.248 32.5513C121.248 35.4939 121.248 38.4365 121.248 41.4683C121.407 41.4948 121.566 41.5213 121.73 41.5487C122.639 41.7686 123.53 42.0424 124.381 42.4323C124.501 42.485 124.622 42.5375 124.742 42.5899C126.653 43.4258 128.446 44.428 130.085 45.726C130.156 45.7824 130.228 45.8389 130.302 45.897C131.654 46.9795 132.965 48.2075 134.021 49.582C134.083 49.6597 134.145 49.7373 134.209 49.8174C135.085 50.9268 135.851 52.1086 136.511 53.3577C136.538 53.4083 136.565 53.459 136.593 53.5112C138.992 58.0744 139.917 63.3559 139.082 68.4604C139.055 68.5134 139.029 68.5664 139.002 68.6211C138.992 68.7221 138.982 68.8232 138.972 68.9273C138.626 72.185 136.986 75.8553 134.985 78.4217C134.866 78.5823 134.747 78.743 134.628 78.9037C133.394 80.5408 131.967 82.162 130.326 83.4024C130.229 83.4777 130.131 83.553 130.034 83.6284C127.938 85.2426 125.606 86.5336 123.091 87.3665C122.946 87.4155 122.802 87.468 122.658 87.5208C117.185 89.4885 110.601 88.9254 105.382 86.4672C105.154 86.3574 104.926 86.2459 104.699 86.1338C104.632 86.101 104.564 86.0682 104.495 86.0344C103.041 85.3227 101.701 84.4167 100.442 83.4024C100.334 83.3181 100.334 83.3181 100.224 83.232C99.5676 82.7087 98.96 82.1341 98.3529 81.5547C98.2567 81.4637 98.2567 81.4637 98.1586 81.3709C97.8011 81.024 97.4866 80.6499 97.1752 80.2613C96.9878 80.0292 96.7946 79.8031 96.6006 79.5765C95.767 78.5739 95.069 77.4948 94.4378 76.3554C94.3436 76.1857 94.2476 76.0171 94.1514 75.8486C93.2842 74.3019 92.6754 72.6258 92.222 70.9157C92.1741 70.7357 92.1241 70.5565 92.0731 70.3774C91.5778 68.5545 91.4259 66.6809 91.4241 64.8002C91.424 64.7236 91.4238 64.647 91.4237 64.5681C91.4236 63.3992 91.4779 62.2617 91.6557 61.1046C91.6816 60.9332 91.7035 60.7621 91.7229 60.5899C91.9681 58.5361 92.6912 56.3315 93.6132 54.4824C93.6421 54.424 93.6711 54.3657 93.7009 54.3056C94.3903 52.9299 95.1771 51.6146 96.1035 50.3853C96.1387 50.3386 96.1739 50.2918 96.2102 50.2436C96.6657 49.6423 97.1447 49.0716 97.6609 48.5217C97.8542 48.3146 98.041 48.1032 98.2274 47.89C99.376 46.6157 100.774 45.5331 102.209 44.6013C102.293 44.5464 102.378 44.4916 102.465 44.435C102.725 44.2712 102.988 44.1132 103.253 43.9587C103.31 43.9255 103.367 43.8924 103.425 43.8583C107.412 41.5487 107.412 41.5487 109.278 41.5487C109.278 38.606 109.278 35.6634 109.278 32.6316C105.699 32.6316 102.121 32.6316 98.4332 32.6316C98.4332 31.3857 98.4332 30.1397 98.4332 28.856Z" fill="#FDFEFE"></path><path d="M83.3303 36.4878C90.0373 36.4878 96.7444 36.4878 103.655 36.4878C102.134 38.5156 99.9925 39.7593 97.4984 40.1891C96.5302 40.3228 95.5478 40.2831 94.5726 40.2792C94.3545 40.2788 94.1363 40.2786 93.9182 40.2785C93.4056 40.278 92.8929 40.2767 92.3803 40.275C91.7959 40.2732 91.2115 40.2724 90.6271 40.2716C89.4266 40.2699 88.2261 40.2671 87.0256 40.2635C87.0322 43.4421 87.0396 46.6206 87.0481 49.7992C87.0491 50.1759 87.0501 50.5526 87.0511 50.9293C87.0513 51.0043 87.0515 51.0793 87.0517 51.1565C87.0549 52.3649 87.0575 53.5732 87.06 54.7816C87.0625 56.0248 87.0656 57.268 87.0692 58.5112C87.0715 59.2761 87.0732 60.041 87.0744 60.8059C87.0753 61.333 87.0767 61.8601 87.0786 62.3872C87.0796 62.6896 87.0805 62.9921 87.0806 63.2945C87.0813 64.5345 87.1062 65.7696 87.1823 67.0073C87.1857 67.0629 87.1891 67.1184 87.1927 67.1757C87.2454 68.0163 87.3227 68.8485 87.4524 69.6806C87.4701 69.7988 87.4878 69.917 87.5055 70.0352C87.6478 70.968 87.8302 71.8858 88.07 72.7985C88.0896 72.8752 88.1092 72.9518 88.1295 73.0308C89.688 79.0654 93.156 84.7096 98.0618 88.6167C98.288 88.7974 98.5084 88.9842 98.7292 89.1715C100.777 90.8769 103.066 92.2885 105.422 93.5246C105.537 93.5854 105.537 93.5854 105.654 93.6474C108.125 94.9481 110.718 95.9674 113.375 96.8183C113.465 96.8475 113.555 96.8767 113.647 96.9069C113.879 96.9815 114.111 97.0538 114.344 97.1245C114.407 97.1445 114.47 97.1645 114.535 97.1851C115.244 97.3893 115.906 97.2344 116.598 97.0291C116.669 97.0084 116.74 96.9877 116.813 96.9664C121.328 95.6149 125.728 93.6532 129.602 90.9539C129.647 90.9231 129.692 90.8922 129.738 90.8604C130.98 90.0002 132.167 89.0633 133.298 88.0619C133.373 87.9959 133.448 87.93 133.525 87.862C134.556 86.9364 135.598 85.9671 136.448 84.8705C136.589 84.6915 136.737 84.5276 136.893 84.3615C137.407 83.7893 137.838 83.1481 138.278 82.5189C138.333 82.4415 138.333 82.4415 138.388 82.3625C139.274 81.0954 140.026 79.737 140.688 78.3416C140.716 78.2851 140.743 78.2287 140.771 78.1705C142.208 75.1956 143.003 72.012 143.377 68.7407C143.402 68.5232 143.43 68.3071 143.462 68.0904C143.621 66.9016 143.605 65.7084 143.606 64.5115C143.606 64.1853 143.607 63.8591 143.608 63.5328C143.61 62.9692 143.611 62.4056 143.612 61.842C143.613 61.0271 143.616 60.2123 143.618 59.3974C143.621 58.075 143.624 56.7526 143.627 55.4301C143.629 54.1464 143.632 52.8627 143.635 51.579C143.635 51.4997 143.636 51.4204 143.636 51.3387C143.637 50.9409 143.638 50.5431 143.639 50.1453C143.647 46.8514 143.654 43.5574 143.661 40.2635C143.584 40.2639 143.584 40.2639 143.505 40.2644C142.245 40.2715 140.986 40.2768 139.726 40.2801C139.117 40.2818 138.508 40.284 137.899 40.2877C137.367 40.2909 136.835 40.293 136.303 40.2937C136.022 40.2941 135.742 40.2951 135.461 40.2974C133.675 40.3119 132.054 40.1785 130.406 39.4601C130.322 39.4239 130.238 39.3876 130.152 39.3503C128.828 38.7327 127.614 37.7111 126.71 36.5681C126.71 36.5416 126.71 36.5151 126.71 36.4878C133.55 36.4878 140.39 36.4878 147.436 36.4878C147.446 43.9473 147.446 43.9473 147.448 47.0747C147.449 47.7904 147.449 48.5061 147.45 49.2218C147.45 49.3563 147.45 49.3563 147.45 49.4936C147.451 50.9366 147.453 52.3796 147.455 53.8226C147.457 55.3064 147.459 56.7901 147.459 58.2739C147.459 59.1876 147.46 60.1012 147.462 61.0148C147.464 61.6436 147.464 62.2723 147.464 62.9011C147.464 63.2624 147.464 63.6237 147.465 63.9851C147.471 65.7075 147.402 67.3919 147.195 69.1032C147.185 69.1873 147.175 69.2714 147.165 69.358C146.943 71.2044 146.605 73.0245 146.071 74.8069C146.043 74.8983 146.043 74.8983 146.015 74.9917C145.904 75.3599 145.789 75.7267 145.669 76.0922C145.634 76.2004 145.634 76.2004 145.598 76.3108C144.282 80.3264 142.128 84.0966 139.323 87.2586C139.224 87.3723 139.125 87.4861 139.027 87.6C138.938 87.7005 138.849 87.8009 138.76 87.9012C138.71 87.9585 138.659 88.0158 138.608 88.0748C138.174 88.5618 137.725 89.0295 137.263 89.4894C137.148 89.6038 137.034 89.7186 136.919 89.8335C136.502 90.2506 136.078 90.6527 135.627 91.0342C135.543 91.1076 135.458 91.1809 135.373 91.2542C134.823 91.7227 134.265 92.1758 133.688 92.6094C133.584 92.6872 133.481 92.7654 133.378 92.8438C131.671 94.1414 129.866 95.2897 127.996 96.3363C127.91 96.3845 127.824 96.4327 127.736 96.4824C124.626 98.2175 121.345 99.5211 117.954 100.594C117.853 100.626 117.752 100.658 117.648 100.691C113.69 101.925 108.914 99.4224 105.342 97.7019C105.212 97.6397 105.212 97.6397 105.079 97.5761C103.337 96.7358 101.665 95.7792 100.04 94.7296C99.9667 94.6825 99.9667 94.6825 99.8923 94.6345C98.6524 93.8299 97.4599 92.9615 96.3159 92.0257C96.1943 91.9266 96.0718 91.8287 95.9492 91.7309C95.4483 91.329 94.9756 90.9027 94.5067 90.4644C94.2906 90.2624 94.0705 90.0654 93.849 89.8694C93.2181 89.3033 92.6112 88.7054 92.0618 88.0594C91.9068 87.8789 91.7457 87.7048 91.5846 87.5297C91.1358 87.0316 90.7267 86.5052 90.3193 85.9732C90.2796 85.9216 90.2399 85.87 90.199 85.8168C86.3287 80.7723 83.9437 74.6252 83.4384 68.2818C83.4333 68.2189 83.4282 68.1559 83.4229 68.0911C83.3094 66.6588 83.2971 65.2306 83.3023 63.7946C83.3034 63.426 83.303 63.0575 83.3028 62.6889C83.3027 62.0543 83.3034 61.4196 83.3048 60.785C83.3068 59.8675 83.3074 58.95 83.3077 58.0325C83.3082 56.5429 83.3098 55.0534 83.3121 53.5638C83.3143 52.1191 83.316 50.6744 83.317 49.2297C83.3171 49.1393 83.3172 49.049 83.3172 48.9559C83.3177 48.249 83.3182 47.5422 83.3187 46.8353C83.3209 43.3861 83.3258 39.937 83.3303 36.4878Z" fill="#FDFEFE"></path><path d="M113.615 48.9395C114.782 48.9395 115.948 48.9395 117.15 48.9395C117.176 52.3327 117.203 55.726 117.23 59.2221C119.59 56.8627 121.949 54.5034 124.38 52.0725C124.637 52.2009 124.755 52.2665 124.944 52.4578C124.989 52.5029 125.034 52.5479 125.081 52.5943C125.128 52.6427 125.176 52.691 125.225 52.7409C125.274 52.7906 125.324 52.8403 125.375 52.8915C125.532 53.0499 125.689 53.2088 125.846 53.3678C125.953 53.4755 126.06 53.5831 126.167 53.6907C126.428 53.9542 126.69 54.2182 126.951 54.4825C126.585 54.9202 126.198 55.3261 125.794 55.7281C125.727 55.795 125.661 55.862 125.592 55.931C125.376 56.1461 125.161 56.361 124.945 56.5758C124.812 56.7092 124.678 56.8427 124.545 56.9761C124.052 57.4689 123.558 57.9614 123.064 58.454C121.409 60.1067 121.409 60.1067 119.721 61.7928C123.114 61.8193 126.507 61.8458 130.003 61.8732C130.003 63.0396 130.003 64.206 130.003 65.4078C128.686 65.4133 127.368 65.4177 126.05 65.4203C125.438 65.4216 124.826 65.4232 124.214 65.426C123.681 65.4284 123.147 65.43 122.614 65.4305C122.331 65.4308 122.049 65.4315 121.767 65.4333C121.451 65.4353 121.135 65.4353 120.82 65.4352C120.727 65.4361 120.634 65.4369 120.538 65.4378C119.833 65.4351 119.216 65.3585 118.691 64.8505C118.59 64.7553 118.59 64.7553 118.488 64.6582C118.338 64.508 118.193 64.357 118.049 64.2019C117.357 63.4625 116.654 62.9114 115.608 62.8635C114.515 62.8566 113.822 63.1234 113.041 63.8906C112.897 64.035 112.755 64.1808 112.613 64.3268C111.66 65.3042 111.66 65.3042 111.012 65.3374C110.936 65.3373 110.859 65.3372 110.78 65.3372C110.692 65.3373 110.603 65.3374 110.512 65.3375C110.416 65.3372 110.319 65.3369 110.219 65.3366C110.117 65.3366 110.015 65.3366 109.91 65.3366C109.631 65.3367 109.351 65.3362 109.072 65.3356C108.78 65.3351 108.488 65.3351 108.196 65.335C107.643 65.3347 107.09 65.3341 106.537 65.3333C105.907 65.3324 105.277 65.3319 104.648 65.3315C103.352 65.3307 102.057 65.3292 100.762 65.3275C100.762 64.1876 100.762 63.0476 100.762 61.8732C104.155 61.8466 107.548 61.8201 111.045 61.7928C108.659 59.4069 106.273 57.021 103.815 54.5628C103.943 54.3059 104.009 54.1881 104.2 53.9985C104.245 53.9535 104.29 53.9085 104.336 53.8621C104.385 53.8146 104.433 53.767 104.483 53.718C104.533 53.6686 104.582 53.6191 104.634 53.5681C104.792 53.4106 104.951 53.2537 105.11 53.0967C105.218 52.9898 105.325 52.8829 105.433 52.776C105.696 52.5143 105.96 52.2531 106.225 51.9921C106.662 52.3572 107.068 52.7444 107.47 53.1483C107.537 53.2152 107.604 53.2822 107.673 53.3512C107.888 53.5664 108.103 53.7818 108.318 53.9973C108.451 54.1308 108.585 54.2644 108.718 54.3978C109.211 54.8911 109.703 55.3847 110.196 55.8783C111.298 56.9817 112.4 58.0852 113.535 59.2221C113.575 54.1322 113.575 54.1322 113.615 48.9395Z" fill="#FDFEFE"></path><path d="M106.286 72.3962C106.552 72.5155 106.827 72.6044 107.104 72.693C107.157 72.7103 107.21 72.7275 107.264 72.7453C109.391 73.4034 111.668 72.8899 113.603 71.9415C114.593 71.5253 115.915 71.487 116.914 71.8875C116.992 71.923 117.07 71.9585 117.151 71.9951C117.254 72.0404 117.357 72.0854 117.461 72.1304C117.627 72.2032 117.793 72.2762 117.959 72.3501C119.083 72.8483 120.066 72.9736 121.288 72.9742C121.441 72.9757 121.441 72.9757 121.597 72.9772C122.146 72.978 122.648 72.955 123.176 72.7985C123.271 72.7708 123.367 72.7432 123.465 72.7147C124.066 72.5162 124.646 72.293 125.221 72.0282C126.28 71.5452 127.521 71.4903 128.622 71.8875C128.981 72.0374 129.337 72.1913 129.692 72.3501C130.748 72.8216 131.675 72.9602 132.821 73.0043C132.906 73.0078 132.991 73.0113 133.078 73.0148C133.285 73.0233 133.492 73.0315 133.7 73.0395C133.402 74.0456 132.796 74.987 132.228 75.8612C132.189 75.9235 132.15 75.9858 132.109 76.05C131.834 76.4625 131.834 76.4625 131.581 76.5895C131.275 76.5672 131.025 76.4485 130.752 76.3181C130.637 76.2654 130.521 76.2128 130.405 76.1602C130.298 76.1108 130.191 76.0613 130.085 76.0118C128.414 75.2479 126.275 75.1871 124.537 75.7997C124.076 75.9744 123.632 76.1844 123.186 76.3934C122.811 76.5659 122.459 76.6735 122.051 76.7348C121.954 76.751 121.954 76.751 121.855 76.7674C120.806 76.9051 119.863 76.7015 118.918 76.2528C118.089 75.8937 118.089 75.8937 117.231 75.6101C117.172 75.5936 117.113 75.577 117.052 75.5599C115.284 75.1557 113.322 75.4998 111.709 76.2789C110.48 76.872 109.219 76.9814 107.913 76.5741C107.608 76.4548 107.313 76.3162 107.017 76.1773C106.597 75.9824 106.178 75.8251 105.733 75.6955C105.679 75.6795 105.625 75.6635 105.569 75.6471C103.578 75.0903 101.552 75.5206 99.7458 76.4279C99.5257 76.5051 99.4515 76.4959 99.2365 76.4135C99.1169 76.2859 99.1169 76.2859 99.0049 76.1198C98.9629 76.0581 98.9209 75.9965 98.8776 75.9329C98.8337 75.8662 98.7897 75.7994 98.7444 75.7306C98.676 75.6284 98.676 75.6284 98.6061 75.5241C98.3045 75.0693 98.0142 74.6081 97.7353 74.139C97.7024 74.0839 97.6695 74.0289 97.6356 73.9721C97.4593 73.6687 97.3265 73.3788 97.2281 73.0395C97.3292 73.0365 97.4303 73.0335 97.5344 73.0304C99.2316 72.9703 100.528 72.5796 102.067 71.8765C103.512 71.2968 104.979 71.7032 106.286 72.3962Z" fill="#2DCAEE"></path><path d="M106.028 79.1689C107.028 79.6796 108.01 79.8764 109.118 79.9481C109.228 79.9554 109.228 79.9554 109.34 79.9629C109.536 79.9685 109.726 79.9611 109.921 79.9481C110.019 79.9426 110.116 79.9371 110.217 79.9315C111.454 79.8374 112.602 79.3998 113.703 78.8445C114.262 78.6031 114.778 78.5551 115.379 78.5573C115.447 78.5561 115.514 78.5548 115.584 78.5534C116.298 78.5529 116.865 78.7958 117.508 79.0855C118.735 79.6357 119.785 79.8949 121.133 79.9029C121.237 79.9038 121.34 79.9046 121.447 79.9055C122.507 79.8957 123.471 79.7219 124.432 79.2703C124.577 79.2058 124.723 79.1415 124.868 79.0776C124.937 79.0474 125.006 79.0172 125.076 78.9861C126.24 78.4791 127.45 78.3889 128.658 78.81C128.899 78.9116 129.13 79.0253 129.362 79.1448C129.057 79.5175 128.741 79.8528 128.373 80.164C128.325 80.2049 128.277 80.2458 128.227 80.2879C126.818 81.4631 125.232 82.3779 123.578 83.1615C123.455 83.2214 123.455 83.2214 123.33 83.2826C119.18 85.1956 114.094 85.4166 109.761 84.0451C109.705 84.0276 109.65 84.01 109.592 83.9919C106.669 83.0392 103.881 81.2475 101.727 79.0645C101.845 78.8287 101.987 78.8178 102.234 78.7331C103.554 78.3447 104.828 78.5477 106.028 79.1689Z" fill="#27C2EB"></path><rect x="401.5" y="7.5" width="115" height="115" rx="57.5" fill="#F1F1F1"></rect><rect x="401.5" y="7.5" width="115" height="115" rx="57.5" stroke="url(#paint3_linear_2001_703)"></rect><path d="M438.796 25.041C452.353 25.041 465.909 25.041 479.877 25.041C479.877 27.6719 479.877 30.3027 479.877 33.0133C484.86 33.0133 489.843 33.0133 494.977 33.0133C494.985 41.3101 494.985 41.3101 494.986 44.7874C494.987 45.5832 494.987 46.379 494.987 47.1747C494.988 47.2745 494.988 47.3742 494.988 47.4769C494.988 49.0818 494.99 50.6867 494.992 52.2916C494.993 53.9416 494.994 55.5916 494.995 57.2416C494.995 58.2577 494.996 59.2739 494.997 60.29C494.998 60.9891 494.999 61.6882 494.998 62.3873C494.998 62.7892 494.999 63.1911 495 63.593C495.005 65.9001 494.967 68.2032 494.614 70.4888C494.598 70.5968 494.582 70.7048 494.565 70.8161C494.425 71.7297 494.25 72.6316 494.039 73.5312C493.999 73.7077 493.999 73.7077 493.959 73.8877C492.863 78.5164 490.911 83.05 488.063 86.8751C487.933 87.0497 487.806 87.2255 487.678 87.4013C487.027 88.2887 486.333 89.126 485.598 89.9447C485.554 89.994 485.51 90.0434 485.465 90.0942C484.328 91.3686 483.137 92.6606 481.786 93.7096C481.549 93.8963 481.329 94.0955 481.108 94.3001C478.113 97.0179 474.407 99.1613 470.788 100.917C470.65 100.983 470.514 101.051 470.377 101.118C467.305 102.636 464.005 103.944 460.659 104.715C460.481 104.759 460.305 104.815 460.13 104.871C459.346 105.065 458.665 104.908 457.9 104.693C457.796 104.665 457.693 104.636 457.586 104.606C453.943 103.576 450.423 102.19 447.057 100.456C446.919 100.385 446.781 100.314 446.642 100.244C443.508 98.6592 440.549 96.7047 437.858 94.4467C437.801 94.3984 437.743 94.3502 437.684 94.3005C436.562 93.3563 435.491 92.3688 434.452 91.334C434.373 91.2549 434.293 91.1757 434.211 91.0942C433.751 90.6323 433.31 90.1599 432.887 89.6633C432.804 89.5676 432.72 89.4718 432.637 89.3761C427.947 83.9075 425.02 77.1257 424.099 69.9987C424.073 69.7933 424.044 69.5882 424.016 69.3831C423.754 67.447 423.776 65.5052 423.779 63.556C423.779 63.1451 423.779 62.7343 423.779 62.3235C423.779 61.6136 423.779 60.9037 423.78 60.1937C423.78 59.1674 423.781 58.141 423.781 57.1146C423.781 55.4489 423.781 53.7832 423.782 52.1175C423.783 50.5004 423.784 48.8834 423.784 47.2663C423.784 47.1655 423.784 47.0646 423.784 46.9607C423.785 46.1717 423.785 45.3827 423.785 44.5938C423.786 40.7336 423.788 36.8734 423.789 33.0133C428.742 33.0133 433.694 33.0133 438.796 33.0133C438.796 30.3824 438.796 27.7516 438.796 25.041Z" fill="url(#paint4_linear_2001_703)"></path><path d="M442.453 28.8867C447.281 28.8867 452.11 28.8867 457.084 28.8867C457.084 34.0865 457.084 39.2863 457.084 44.6437C456.28 44.7984 455.475 44.9532 454.646 45.1126C452.03 45.7779 449.596 46.8797 447.424 48.4891C447.367 48.5308 447.311 48.5725 447.253 48.6155C446.124 49.4581 445.028 50.3918 444.141 51.4905C444.057 51.5912 443.973 51.692 443.888 51.7927C440.321 56.1016 438.799 61.5518 439.312 67.0969C439.433 68.1424 439.695 69.1539 440.014 70.155C440.034 70.2197 440.055 70.2844 440.075 70.351C440.578 71.944 441.31 73.4476 442.198 74.8599C442.359 75.1259 442.359 75.1259 442.453 75.4073C443.31 74.9598 444.13 74.456 444.952 73.9485C445.232 73.7763 445.513 73.6054 445.793 73.4345C446.469 73.0223 447.144 72.6066 447.817 72.1891C448.615 71.6941 449.415 71.2019 450.219 70.7163C450.621 70.473 451.022 70.2283 451.417 69.9718C451.481 69.9309 451.545 69.8901 451.611 69.848C451.727 69.7741 451.841 69.6986 451.955 69.6214C452.108 69.5248 452.108 69.5248 452.395 69.4046C452.869 69.5248 453.302 69.746 453.741 69.9575C453.816 69.9935 453.892 70.0296 453.969 70.0667C454.131 70.1439 454.292 70.2212 454.454 70.2986C454.706 70.4195 454.958 70.5399 455.211 70.6601C455.853 70.9657 456.495 71.2714 457.136 71.579C457.445 71.7274 457.755 71.8749 458.065 72.0215C458.23 72.0997 458.395 72.1792 458.559 72.2586C458.657 72.3048 458.755 72.351 458.856 72.3986C458.94 72.4389 459.025 72.4791 459.111 72.5205C459.371 72.6052 459.46 72.6025 459.711 72.4998C459.888 72.403 460.063 72.3005 460.236 72.1946C460.341 72.1306 460.446 72.0665 460.554 72.0006C460.667 71.9306 460.781 71.8605 460.895 71.7905C461.011 71.719 461.128 71.6475 461.245 71.5761C461.548 71.3904 461.851 71.204 462.154 71.0175C462.393 70.8709 462.631 70.7246 462.87 70.5783C463.349 70.2844 463.828 69.9901 464.307 69.6952C464.433 69.6176 464.433 69.6176 464.561 69.5384C464.728 69.4341 464.893 69.3262 465.057 69.2171C465.523 69.2453 465.908 69.4249 466.322 69.6267C466.39 69.6591 466.458 69.6916 466.528 69.725C466.753 69.8325 466.978 69.941 467.202 70.0494C467.361 70.1258 467.521 70.2021 467.68 70.2783C468.014 70.4378 468.347 70.5977 468.681 70.7579C469.163 70.9893 469.645 71.2191 470.128 71.4483C470.205 71.4848 470.282 71.5214 470.361 71.559C470.594 71.6694 470.827 71.7798 471.059 71.8901C471.37 72.0373 471.68 72.1846 471.99 72.332C472.067 72.3685 472.144 72.4049 472.223 72.4426C472.714 72.6756 473.204 72.9096 473.694 73.1442C474.024 73.3022 474.355 73.4598 474.685 73.6174C474.842 73.6923 474.999 73.7675 475.155 73.8428C475.372 73.9469 475.589 74.0503 475.806 74.1536C475.869 74.1843 475.933 74.2151 475.998 74.2468C476.32 74.399 476.615 74.513 476.968 74.5632C477.189 74.1261 477.408 73.6882 477.626 73.2492C477.699 73.1018 477.774 72.9552 477.85 72.809C478.465 71.5611 478.796 70.1448 479.108 68.795C479.126 68.7168 479.144 68.6386 479.163 68.558C479.436 67.3236 479.536 66.1094 479.53 64.8499C479.53 64.7805 479.53 64.7112 479.529 64.6397C479.524 63.458 479.445 62.3132 479.219 61.151C479.204 61.0675 479.188 60.984 479.172 60.898C478.808 58.998 478.165 57.2254 477.25 55.5235C477.201 55.4305 477.153 55.3375 477.104 55.2418C476.371 53.8487 475.415 52.5763 474.349 51.4212C474.173 51.2294 474.005 51.0331 473.838 50.8339C471.904 48.6254 469.14 47.0718 466.464 45.9568C466.359 45.9125 466.254 45.8683 466.146 45.8227C464.641 45.2145 463.094 44.9349 461.493 44.6437C461.493 39.4439 461.493 34.2441 461.493 28.8867C466.352 28.8867 471.211 28.8867 476.218 28.8867C476.218 30.1248 476.218 31.3628 476.218 32.6384C472.627 32.6384 469.037 32.6384 465.338 32.6384C465.338 35.5787 465.338 38.5191 465.338 41.5486C465.648 41.6105 465.957 41.6724 466.276 41.7361C471.951 43.3129 477.14 47.4056 480.053 52.5234C481.511 55.1361 482.563 57.8177 483.065 60.7758C483.086 60.8907 483.086 60.8907 483.107 61.0078C483.509 63.2261 483.448 65.5529 483.183 67.7853C483.166 67.9346 483.15 68.0841 483.135 68.2337C483.127 68.3096 483.119 68.3856 483.111 68.4638C483.104 68.5319 483.098 68.6 483.091 68.6702C483.065 68.8419 483.065 68.8419 482.971 69.0295C482.959 69.1512 482.948 69.273 482.936 69.3984C482.881 69.9213 482.746 70.4085 482.596 70.9112C482.567 71.0089 482.538 71.1067 482.508 71.2074C481.564 74.3163 480.18 77.2163 478.094 79.7217C478.031 79.7989 478.031 79.7989 477.966 79.8777C476.869 81.2239 475.643 82.5269 474.248 83.5671C474.19 83.6114 474.131 83.6556 474.071 83.7012C471.873 85.3622 469.492 86.6884 466.863 87.5318C466.664 87.5959 466.467 87.6629 466.27 87.731C460.96 89.5293 454.404 89.0257 449.37 86.5747C449.123 86.4509 448.879 86.3234 448.635 86.194C448.457 86.1002 448.278 86.009 448.099 85.9182C446.82 85.2627 445.646 84.4548 444.516 83.5671C444.428 83.498 444.339 83.4288 444.248 83.3576C443.539 82.7811 442.889 82.1474 442.242 81.5037C442.112 81.3752 442.112 81.3752 441.98 81.2441C441.184 80.4447 440.473 79.5907 439.827 78.6665C439.756 78.5649 439.756 78.5649 439.683 78.4612C439.228 77.8057 438.812 77.1333 438.42 76.439C438.385 76.3786 438.351 76.3183 438.316 76.2561C437.684 75.1397 437.19 73.9779 436.732 72.7811C436.707 72.7191 436.683 72.6571 436.658 72.5931C436.352 71.7957 436.159 70.9747 435.97 70.1432C435.947 70.0444 435.924 69.9456 435.901 69.8438C435.535 68.1741 435.368 66.5348 435.383 64.8264C435.384 64.6913 435.384 64.6913 435.385 64.5535C435.419 58.9156 437.373 53.5375 441.046 49.2395C441.106 49.1692 441.165 49.099 441.227 49.0266C442.289 47.814 443.432 46.6465 444.736 45.6951C444.891 45.5818 445.045 45.4662 445.199 45.3504C447.327 43.7664 449.698 42.6096 452.219 41.8006C452.297 41.7756 452.375 41.7505 452.455 41.7247C452.528 41.7018 452.602 41.6788 452.677 41.6552C452.775 41.6243 452.775 41.6243 452.875 41.5928C453.051 41.5486 453.051 41.5486 453.333 41.5486C453.333 38.6082 453.333 35.6678 453.333 32.6384C449.742 32.6384 446.152 32.6384 442.453 32.6384C442.453 31.4003 442.453 30.1623 442.453 28.8867Z" fill="#FDFEFE"></path><path d="M427.26 36.4834C433.976 36.4834 440.693 36.4834 447.612 36.4834C447.435 36.9266 447.256 37.1688 446.927 37.4917C446.877 37.5408 446.827 37.5899 446.775 37.6405C445.062 39.2814 442.734 40.2734 440.36 40.2564C440.258 40.2564 440.157 40.2564 440.052 40.2564C439.719 40.2563 439.386 40.2549 439.053 40.2534C438.821 40.253 438.589 40.2528 438.357 40.2526C437.749 40.2519 437.14 40.25 436.532 40.2479C435.91 40.246 435.288 40.2452 434.666 40.2442C433.448 40.2422 432.23 40.239 431.011 40.2351C431.017 43.4363 431.024 46.6376 431.033 49.8389C431.034 50.2189 431.035 50.5989 431.036 50.9789C431.036 51.0546 431.036 51.1302 431.037 51.2082C431.04 52.4245 431.042 53.6409 431.044 54.8572C431.046 56.1102 431.049 57.3632 431.053 58.6162C431.056 59.3179 431.057 60.0196 431.058 60.7213C431.05 64.3079 431.05 64.3079 431.231 67.8885C431.237 67.9566 431.242 68.0247 431.248 68.0949C431.551 71.7312 432.534 75.3063 434.106 78.5958C434.148 78.6833 434.19 78.7708 434.233 78.861C436.146 82.8112 439.103 86.3835 442.548 89.1004C442.643 89.1778 442.739 89.2552 442.837 89.3349C447.339 92.9617 452.554 95.3235 458.023 97.0727C458.117 97.1039 458.211 97.1351 458.308 97.1672C459.035 97.402 459.609 97.3882 460.345 97.1723C460.416 97.1517 460.488 97.1311 460.562 97.1099C467.259 95.1462 473.843 91.8071 478.751 86.7556C478.98 86.5259 479.209 86.2975 479.441 86.072C480.008 85.5187 480.514 84.9401 481.002 84.317C481.047 84.2606 481.092 84.2042 481.138 84.146C482.493 82.4389 483.601 80.6424 484.566 78.6896C484.6 78.622 484.633 78.5544 484.668 78.4848C485.241 77.324 485.759 76.1067 486.104 74.8573C486.177 74.5998 486.263 74.3476 486.348 74.0938C486.693 73.0292 486.918 71.946 487.116 70.8462C487.128 70.7825 487.14 70.7188 487.152 70.6532C487.542 68.5373 487.596 66.4113 487.598 64.2649C487.598 64.0021 487.599 63.7394 487.6 63.4766C487.602 62.916 487.604 62.3553 487.605 61.7946C487.606 60.984 487.609 60.1734 487.611 59.3628C487.615 58.047 487.619 56.7312 487.622 55.4154C487.625 54.1388 487.628 52.8622 487.632 51.5857C487.632 51.5067 487.632 51.4277 487.632 51.3463C487.634 50.9501 487.635 50.5538 487.636 50.1575C487.646 46.8813 487.654 43.6051 487.661 40.3288C487.538 40.3295 487.415 40.3301 487.288 40.3307C486.119 40.3365 484.95 40.3407 483.782 40.3434C483.181 40.3449 482.581 40.3469 481.98 40.3501C481.399 40.3532 480.818 40.3548 480.238 40.3555C480.017 40.3561 479.797 40.3571 479.576 40.3586C476.85 40.3768 474.29 39.9397 472.186 38.0779C472.104 38.0069 472.021 37.9359 471.937 37.8628C471.514 37.4915 471.112 37.1261 470.779 36.671C470.779 36.6091 470.779 36.5472 470.779 36.4834C477.619 36.4834 484.459 36.4834 491.507 36.4834C491.518 43.8122 491.518 43.8122 491.521 46.8919C491.521 47.5965 491.522 48.3012 491.522 49.0059C491.522 49.1384 491.522 49.1384 491.523 49.2735C491.524 50.6918 491.526 52.11 491.529 53.5283C491.531 54.9881 491.533 56.4478 491.533 57.9076C491.534 58.8055 491.535 59.7034 491.537 60.6013C491.539 61.2203 491.539 61.8393 491.539 62.4583C491.539 62.8134 491.539 63.1684 491.54 63.5235C491.547 65.0079 491.506 66.4779 491.378 67.9575C491.372 68.0245 491.367 68.0915 491.361 68.1605C491.012 72.1569 490.004 76.0795 488.318 79.7213C488.277 79.8104 488.236 79.8995 488.193 79.9913C487.323 81.8483 486.271 83.6177 485.035 85.255C484.998 85.3054 484.96 85.3558 484.921 85.4077C483.319 87.5503 481.481 89.7108 479.364 91.3536C479.141 91.5279 478.926 91.7103 478.713 91.8965C473.432 96.4721 466.774 99.3842 460.087 101.2C460.02 101.218 459.952 101.236 459.883 101.255C459.341 101.376 458.814 101.263 458.287 101.129C458.209 101.109 458.131 101.09 458.05 101.069C455.805 100.474 453.591 99.6732 451.458 98.7609C451.378 98.727 451.299 98.6932 451.217 98.6583C450.667 98.4219 450.123 98.1734 449.582 97.9168C449.491 97.8735 449.399 97.8301 449.305 97.7855C446.453 96.4214 443.75 94.7684 441.235 92.8521C441.178 92.8089 441.121 92.7658 441.063 92.7213C440.417 92.2272 439.792 91.7195 439.193 91.1686C438.998 90.989 438.798 90.8151 438.597 90.6421C438.266 90.3547 437.959 90.0477 437.652 89.7353C437.478 89.5581 437.478 89.5581 437.243 89.3818C436.97 89.1581 436.756 88.9051 436.527 88.6373C436.372 88.4602 436.211 88.2966 436.041 88.1332C435.608 87.7058 435.235 87.2311 434.857 86.7556C434.776 86.6549 434.694 86.5541 434.613 86.4534C430.83 81.7328 428.461 76.0951 427.623 70.1135C427.601 69.9547 427.601 69.9547 427.578 69.7926C427.54 69.5115 427.505 69.2301 427.471 68.9484C427.456 68.8166 427.439 68.6849 427.423 68.5532C427.238 67.0333 427.234 65.5168 427.238 63.9882C427.239 63.6179 427.238 63.2476 427.238 62.8772C427.238 62.2379 427.239 61.5986 427.24 60.9593C427.241 60.0351 427.242 59.1108 427.242 58.1865C427.243 56.6864 427.244 55.1863 427.246 53.6862C427.247 52.2303 427.249 50.7744 427.249 49.3185C427.249 49.2276 427.25 49.1367 427.25 49.0431C427.25 48.3321 427.25 47.6212 427.251 46.9102C427.252 43.4346 427.256 39.959 427.26 36.4834Z" fill="#FCFEFD"></path><path d="M457.647 49.0518C458.792 49.0518 459.938 49.0518 461.117 49.0518C461.148 52.4254 461.179 55.7991 461.211 59.275C463.595 56.8918 465.978 54.5085 468.433 52.0531C468.829 52.3925 469.2 52.7144 469.564 53.0811C469.647 53.1639 469.729 53.2468 469.814 53.3321C469.94 53.4592 469.94 53.4592 470.069 53.5889C470.155 53.6758 470.242 53.7628 470.331 53.8523C470.543 54.0652 470.754 54.2783 470.966 54.4917C470.572 54.9612 470.162 55.4022 469.728 55.834C469.662 55.9001 469.596 55.9662 469.527 56.0343C469.316 56.2461 469.103 56.4576 468.891 56.669C468.76 56.8006 468.628 56.9321 468.496 57.0637C468.01 57.549 467.524 58.0339 467.038 58.5188C465.951 59.6041 464.864 60.6893 463.744 61.8074C467.117 61.8383 470.491 61.8693 473.967 61.9012C473.967 63.0464 473.967 64.1916 473.967 65.3715C472.6 65.3842 471.232 65.3946 469.865 65.4006C469.23 65.4035 468.595 65.4075 467.96 65.4139C467.347 65.4202 466.734 65.4234 466.121 65.4249C465.888 65.4259 465.654 65.4279 465.421 65.431C465.093 65.4351 464.765 65.4356 464.437 65.4354C464.341 65.4374 464.245 65.4394 464.146 65.4415C463.282 65.4341 462.78 65.069 462.178 64.4797C462.07 64.3674 461.963 64.2543 461.856 64.1405C461.244 63.4865 460.633 63.0119 459.71 62.8981C458.533 62.873 457.746 63.2473 456.912 64.0428C456.714 64.236 456.522 64.4333 456.332 64.6332C455.836 65.1533 455.367 65.4762 454.629 65.5104C454.444 65.5115 454.259 65.5105 454.074 65.5079C453.972 65.5079 453.871 65.508 453.766 65.508C453.432 65.5078 453.098 65.5048 452.764 65.5019C452.532 65.5012 452.3 65.5007 452.067 65.5003C451.457 65.4989 450.847 65.4952 450.237 65.491C449.614 65.4872 448.991 65.4855 448.368 65.4836C447.147 65.4796 445.925 65.473 444.704 65.4653C444.704 64.2891 444.704 63.113 444.704 61.9012C448.078 61.8702 451.451 61.8393 454.927 61.8074C452.575 59.4551 450.223 57.1028 447.799 54.6792C447.987 54.3035 448.203 54.0633 448.497 53.775C448.547 53.7256 448.597 53.6762 448.648 53.6252C448.806 53.4681 448.965 53.3116 449.124 53.1551C449.232 53.0484 449.339 52.9417 449.447 52.8349C449.71 52.5738 449.974 52.3133 450.238 52.0531C450.703 52.4436 451.142 52.8498 451.571 53.2794C451.636 53.3432 451.7 53.4071 451.766 53.4728C451.976 53.6818 452.185 53.891 452.395 54.1004C452.541 54.2463 452.687 54.3923 452.833 54.5382C453.139 54.843 453.444 55.1479 453.749 55.453C454.141 55.8448 454.533 56.2359 454.926 56.6269C455.227 56.9275 455.528 57.2285 455.83 57.5297C455.974 57.6742 456.119 57.8185 456.264 57.9627C456.465 58.1634 456.666 58.3647 456.867 58.5662C456.928 58.626 456.988 58.6859 457.05 58.7475C457.46 59.1598 457.46 59.1598 457.46 59.3688C457.522 59.3688 457.583 59.3688 457.647 59.3688C457.647 55.9642 457.647 52.5596 457.647 49.0518Z" fill="#FDFEFE"></path><path d="M465.808 73.0625C465.993 73.1418 466.175 73.2269 466.356 73.316C466.464 73.3687 466.571 73.4213 466.682 73.4756C466.739 73.5037 466.796 73.5319 466.855 73.5609C467.161 73.7122 467.468 73.8615 467.775 74.0111C467.838 74.0418 467.901 74.0725 467.966 74.1041C468.583 74.4042 469.206 74.6926 469.829 74.9794C470.795 75.425 471.756 75.8813 472.713 76.3452C472.774 76.3748 472.835 76.4044 472.898 76.4349C473.601 76.7755 474.302 77.1193 474.999 77.4707C474.801 77.8563 474.546 78.1218 474.238 78.4193C474.061 78.5961 473.9 78.7804 473.739 78.9714C473.407 79.355 473.043 79.6777 472.654 80.0031C472.536 80.107 472.536 80.107 472.416 80.213C470.462 81.9028 468.219 83.0548 465.808 83.9423C465.736 83.9688 465.664 83.9953 465.59 84.0226C464.505 84.4138 463.38 84.607 462.244 84.7864C462.142 84.8034 462.039 84.8204 461.934 84.8379C461.152 84.9608 460.391 85.0037 459.6 84.9975C459.481 84.9968 459.362 84.9961 459.24 84.9953C456.472 84.9638 452.295 84.4436 450.164 82.4742C450.127 82.4325 450.089 82.3908 450.051 82.3479C450.2 82.256 450.349 82.1642 450.498 82.0724C450.596 82.0124 450.693 81.9524 450.794 81.8906C451.013 81.7559 451.231 81.6212 451.45 81.4866C452.006 81.1444 452.562 80.8021 453.118 80.4596C454.357 79.6964 455.598 78.9373 456.841 78.1817C457.806 77.5949 458.769 77.005 459.729 76.4097C460.697 75.8092 461.67 75.2169 462.643 74.6254C463.04 74.3843 463.436 74.1427 463.832 73.9008C463.898 73.8606 463.964 73.8203 464.032 73.7789C464.094 73.7407 464.157 73.7024 464.222 73.663C464.282 73.6265 464.342 73.5899 464.405 73.5523C464.534 73.4718 464.66 73.3878 464.785 73.3014C464.85 73.2575 464.915 73.2136 464.981 73.1684C465.039 73.128 465.096 73.0875 465.155 73.0459C465.411 72.9383 465.544 72.9821 465.808 73.0625Z" fill="#44CF9C"></path><path d="M452.831 73.2064C453.26 73.3942 453.684 73.5913 454.107 73.7952C454.19 73.8352 454.274 73.8751 454.36 73.9163C454.927 74.1884 455.491 74.4677 456.053 74.7507C455.744 75.0056 455.432 75.2296 455.09 75.438C454.994 75.4968 454.898 75.5556 454.799 75.6161C454.697 75.6787 454.594 75.7414 454.488 75.8059C454.379 75.8724 454.27 75.9389 454.161 76.0055C453.935 76.1438 453.709 76.2819 453.483 76.42C453.059 76.6793 452.635 76.9404 452.212 77.2015C451.237 77.8024 450.261 78.4005 449.282 78.9943C448.906 79.2226 448.53 79.4514 448.157 79.6854C448.072 79.7387 448.072 79.7387 447.985 79.7931C447.843 79.8828 447.7 79.9731 447.558 80.0635C447.174 80.2778 447.174 80.2778 446.955 80.2844C446.746 80.1386 446.746 80.1386 446.521 79.921C446.439 79.8435 446.358 79.766 446.274 79.6861C446.147 79.5644 446.147 79.5644 446.017 79.4403C445.85 79.2893 445.682 79.1388 445.513 78.9889C445.235 78.7403 444.966 78.4868 444.704 78.221C444.827 77.852 444.971 77.8092 445.302 77.6128C445.38 77.5661 445.38 77.5661 445.46 77.5184C445.573 77.451 445.685 77.3841 445.798 77.3174C446.039 77.1758 446.278 77.0324 446.517 76.8891C446.64 76.8156 446.763 76.7421 446.886 76.6687C447.461 76.3247 448.029 75.9698 448.596 75.6124C449.366 75.1285 450.14 74.653 450.923 74.1904C451.247 73.9984 451.567 73.8057 451.876 73.5908C451.966 73.5286 452.056 73.4665 452.149 73.4025C452.221 73.3495 452.293 73.2965 452.368 73.242C452.582 73.1563 452.582 73.1563 452.831 73.2064Z" fill="#46D19D"></path><path d="M1.5 387V426.5H572.5V387" stroke="#007F73" stroke-width="3"></path><path d="M70.5 116C79.0494 124.549 95.8381 135.115 115.721 135.214M160 116C144.898 130.281 129.56 135.283 115.721 135.214M115.721 135.214L115.5 154" stroke="#26C1EB" stroke-width="3"></path><path d="M70.5 116C79.0494 124.549 95.8381 135.115 115.721 135.214M160 116C144.898 130.281 129.56 135.283 115.721 135.214M115.721 135.214L115.5 154" stroke="#26C1EB" stroke-width="3"></path><path d="M413 116C421.549 124.549 438.338 135.115 458.221 135.214M502.5 116C487.398 130.281 472.06 135.283 458.221 135.214M458.221 135.214L458 154" stroke="#4AD7A0" stroke-width="3"></path><defs><linearGradient id="paint0_linear_2001_703" x1="17" y1="165" x2="558" y2="350" gradientUnits="userSpaceOnUse"><stop stop-color="#D3D3D3"></stop><stop offset="1" stop-color="#FAFAFA"></stop></linearGradient><linearGradient id="paint1_linear_2001_703" x1="57" y1="11.8083" x2="184.665" y2="27.3825" gradientUnits="userSpaceOnUse"><stop stop-color="#D3D3D3"></stop><stop offset="1" stop-color="#FAFAFA"></stop></linearGradient><linearGradient id="paint2_linear_2001_703" x1="79.7855" y1="25" x2="159.154" y2="95.7461" gradientUnits="userSpaceOnUse"><stop stop-color="#008CDA"></stop><stop offset="0.500371" stop-color="#34D4F2"></stop><stop offset="1" stop-color="#ACE2E1"></stop></linearGradient><linearGradient id="paint3_linear_2001_703" x1="401" y1="11.8083" x2="528.665" y2="27.3825" gradientUnits="userSpaceOnUse"><stop stop-color="#D3D3D3"></stop><stop offset="1" stop-color="#FAFAFA"></stop></linearGradient><linearGradient id="paint4_linear_2001_703" x1="423.777" y1="25.041" x2="503.168" y2="95.794" gradientUnits="userSpaceOnUse"><stop stop-color="#007E72"></stop><stop offset="0.500371" stop-color="#4DE4A7"></stop><stop offset="1" stop-color="#95FCD2"></stop></linearGradient></defs></svg>